<svg width="39" height="26" viewBox="0 0 39 26" fill="none" xmlns="http://www.w3.org/2000/svg">
<path d="M32.5756 0H19.5756V2.78555L16.8491 4.13636H19.5756V8.27273H16.8491L19.5756 9.68795V12.4091H19.4621L11.8938 8.65741V12.4091H8.34832V8.65741L0.804777 12.4091H0.666504V19.5C0.666504 23.0898 2.65964 26 6.57559 26H32.5756C36.4915 26 38.4847 23.0898 38.4847 19.5V6.5C38.4847 2.91023 36.4915 0 32.5756 0Z" fill="#2B3990"/>
<path d="M19.5754 1.38531V1.36994L14.1567 4.13658L19.5754 1.38531Z" fill="#4189DD"/>
<path d="M0.666504 8.27273V9.70982L3.4355 8.27273H0.666504ZM1.38269 3.12C1.22551 3.44759 1.09547 3.78752 0.993868 4.13636H3.4355L1.38269 3.12ZM19.5756 0.00590923V0H11.8938V3.9585L19.5756 0.00590923ZM8.34832 3.9585V0H6.57559C5.02741 0 3.78473 0.459727 2.84223 1.23205L8.34832 3.9585Z" fill="#2B3990"/>
<path d="M19.5756 4.72727V4.13636H16.8491L19.5756 2.78555V1.38509L14.157 4.13636H12.3618L19.5756 0.453227V0.00590923L11.8938 3.9585V0H11.3029V4.72727H19.5756ZM11.3029 12.4091H11.8938V8.65741L19.4621 12.4091H19.5756V11.0618L14.157 8.27273H15.9527L19.5756 10.1459V9.68795L16.8491 8.27273H19.5756V7.68182H11.3029V12.4091ZM8.34832 8.65741V12.4091H8.93923V7.68182H0.666504V8.27273H3.4355L0.666504 9.70982V11.0677L6.12769 8.27273H7.92405L0.666504 11.9836V12.4091H0.804777L8.34832 8.65741ZM2.84223 1.235C2.53141 1.48968 2.25428 1.77864 2.00964 2.09714L6.12769 4.13932H4.33191L1.55759 2.77905C1.49588 2.89192 1.43755 3.0066 1.38269 3.12295L3.4355 4.13932H0.993868C0.93714 4.33195 0.888095 4.52873 0.846731 4.73023H8.93923V0.00295461H8.34832V3.96146L2.84223 1.235Z" fill="white"/>
<path d="M8.93923 12.4091H11.3029V7.68182H19.5756V4.92405L11.3029 5.31818V0H8.93923V5.31818L0.801231 4.96896C0.711966 5.47443 0.666887 5.98671 0.666504 6.5L0.666504 7.68182H8.93923V12.4091Z" fill="#FF0000"/>
<path d="M11.3029 5.31795L19.5756 4.92381V4.72704H11.3029V5.31795ZM0.80127 4.96872L8.93927 5.31795V4.72704H0.84677C0.829633 4.80681 0.815451 4.88718 0.80127 4.96872ZM6.12772 4.13613L2.00554 2.09868C1.84032 2.31359 1.69044 2.53987 1.55704 2.77586L4.33195 4.13613H6.12772ZM2.00909 2.09395L2.00613 2.09868L6.12772 4.13613L2.00909 2.09395ZM14.157 4.13613L19.5756 1.3695V0.452995L12.3618 4.13613H14.157ZM14.157 8.2725L19.5756 11.0391V10.1457L15.9528 8.2725H14.157Z" fill="#FF0000"/>
<path d="M19.5756 11.0618V11.0394L14.157 8.27272L19.5756 11.0618ZM6.12769 8.27272L0.666504 11.0813V11.9836L7.92405 8.27272H6.12769Z" fill="#FF0000"/>
<path d="M0.666504 11.0677V11.0813L6.12769 8.27272L0.666504 11.0677Z" fill="#FF0000"/>
<path d="M9.37822 17.9399L10.121 15.6714L10.8472 17.9399L13.0537 17.089L11.7495 19.0626L13.8024 20.274L11.4269 20.4808L11.7501 22.8415L10.1216 21.119L8.483 22.8415L8.79972 20.4808L6.44141 20.2858L8.4765 19.0685L7.16527 17.089L9.37822 17.9399ZM28.4138 18.7358L28.7051 17.8394L28.9935 18.7358L29.8633 18.4008L29.3504 19.1808L30.1611 19.6594L29.2251 19.7421L29.3504 20.6728L28.7051 19.9927L28.061 20.6728L28.1845 19.7421L27.2526 19.6594L28.0551 19.1808L27.541 18.4008L28.4138 18.7358ZM23.4147 10.8472L23.7078 9.95137L23.995 10.8472L24.8665 10.5116L24.3501 11.2921L25.162 11.7708L24.2236 11.8535L24.3501 12.7848L23.7078 12.1041L23.0601 12.7848L23.186 11.8535L22.2535 11.7731L23.0584 11.2921L22.5419 10.5116L23.4147 10.8472ZM32.8592 9.52533L33.1511 8.62892L33.4383 9.52533L34.3099 9.1891L33.7928 9.96969L34.6083 10.4483L33.667 10.5293L33.7928 11.4617L33.1511 10.784L32.5035 11.4617L32.6287 10.5293L31.6951 10.4507L32.5011 9.97205L31.9829 9.1891L32.8592 9.52533ZM30.8501 13.3568L30.9919 12.9095L31.1373 13.3568L31.571 13.189L31.3157 13.579L31.7187 13.8183L31.2525 13.8585L31.3157 14.3235L30.9919 13.9849L30.671 14.3235L30.7337 13.8585L30.2651 13.8195L30.6699 13.5801L30.4128 13.189L30.8501 13.3568ZM28.4138 5.40669L28.7051 4.51087L28.9935 5.40669L29.8633 5.07105L29.3504 5.85164L30.1611 6.33028L29.2251 6.41124L29.3504 7.34428L28.7051 6.66355L28.061 7.34428L28.1845 6.41124L27.2526 6.33264L28.0551 5.85401L27.541 5.07105L28.4138 5.40669Z" fill="white"/>
</svg>
