<svg width="39" height="26" viewBox="0 0 39 26" fill="none" xmlns="http://www.w3.org/2000/svg">
<path d="M38.1946 19.5C38.1946 23.0898 36.2015 26 32.2856 26H6.28556C2.3696 26 0.376465 23.0898 0.376465 19.5V6.5C0.376465 2.91023 2.3696 0 6.28556 0H32.2856C36.2015 0 38.1946 2.91023 38.1946 6.5V19.5Z" fill="#128807"/>
<path d="M34.1412 13.4671L19.3743 23.8435L4.60693 13.4671L19.3743 3.09073L34.1412 13.4671Z" fill="#F9CB38"/>
<path fill-rule="evenodd" clip-rule="evenodd" d="M25.2008 15.2741C24.5283 17.5591 22.4241 19.2987 20.0415 19.5351C16.8583 19.8536 14.0733 17.8303 13.3962 14.7027C13.1958 13.7835 13.2214 12.8295 13.4706 11.9224C13.5634 11.822 13.6916 11.7977 13.8193 11.78C14.7503 11.6508 15.6915 11.6098 16.6302 11.6577C17.6318 11.7144 18.6251 11.8533 19.5907 12.1263C20.5816 12.407 21.5413 12.7733 22.4471 13.2602C23.1288 13.6224 23.78 14.0394 24.3942 14.5071C24.6022 14.6684 24.8143 14.8267 25.014 14.9987C25.1033 15.0755 25.173 15.1582 25.2002 15.2741" fill="#002776"/>
<path fill-rule="evenodd" clip-rule="evenodd" d="M13.8047 10.9975C14.5676 9.29274 15.854 8.15761 17.632 7.62461C21.2129 6.55092 24.8866 8.91752 25.419 12.6083C25.5017 13.1786 25.5053 13.7506 25.4178 14.322C25.3274 14.3557 25.2601 14.3078 25.198 14.2564C24.549 13.7261 23.8566 13.2513 23.1281 12.837C22.5671 12.5186 21.9841 12.2406 21.3837 12.005C21.2773 11.9631 21.1438 11.9412 21.1071 11.7988C21.1456 11.7302 21.194 11.6706 21.2519 11.615C21.2726 11.5937 21.3027 11.5731 21.275 11.5376C21.2655 11.5264 21.246 11.5264 21.2295 11.5282C21.1851 11.5329 21.1911 11.5636 21.1928 11.5961C21.1964 11.7019 21.1349 11.7698 21.054 11.8242C20.9104 11.8567 20.7727 11.8136 20.6563 11.7515C20.323 11.5766 19.9543 11.5169 19.6015 11.4194C19.0514 11.2699 18.4865 11.1854 17.9227 11.0974C17.4728 11.0255 17.0199 10.9739 16.5654 10.9426C16.1518 10.9136 15.7305 10.9177 15.3139 10.9461C14.8595 10.978 14.4039 11.0099 13.9518 11.0643C13.9235 11.0684 13.8945 11.0643 13.8685 11.0525C13.8424 11.0407 13.8202 11.0216 13.8047 10.9975Z" fill="#002776"/>
<path fill-rule="evenodd" clip-rule="evenodd" d="M21.1119 11.7619C21.1095 11.834 21.1739 11.8245 21.2129 11.8399C22.7388 12.4335 24.1579 13.2718 25.4143 14.3217C25.378 14.6459 25.3063 14.9651 25.2004 15.2737C24.4611 14.6603 23.7042 14.0759 22.8669 13.5984C20.2202 12.091 17.3862 11.4936 14.3566 11.8139C14.0611 11.844 13.7657 11.8842 13.4702 11.9203C13.5464 11.6006 13.6434 11.2868 13.8023 10.9961C16.0141 10.6977 18.1874 10.8673 20.32 11.5273C20.5848 11.6094 20.8371 11.7418 21.1195 11.7666L21.1119 11.7601" fill="#FEFEFE"/>
<path fill-rule="evenodd" clip-rule="evenodd" d="M23.8654 15.5704C23.6876 15.5515 23.8808 15.7695 23.7012 15.7648C23.5446 15.7624 23.5363 15.6372 23.4595 15.5675C23.5186 15.506 23.6232 15.4936 23.6562 15.3979C23.6787 15.4989 23.7738 15.5202 23.8654 15.5704Z" fill="#D9DFEA"/>
<path fill-rule="evenodd" clip-rule="evenodd" d="M17.1551 16.6635C16.9879 16.683 17.128 16.865 16.9879 16.868C16.8467 16.8709 16.774 16.7663 16.7456 16.6582C16.7356 16.6275 16.8715 16.5589 16.9383 16.5081C16.9466 16.6151 17.0576 16.6103 17.1551 16.6635Z" fill="#E9ECF3"/>
<path fill-rule="evenodd" clip-rule="evenodd" d="M19.3684 16.3344C19.1362 16.4845 19.3235 16.1453 19.187 16.1784C19.2313 16.1075 19.3566 16.124 19.3649 16.0153C19.424 16.0768 19.4742 16.1477 19.5681 16.1607C19.434 16.1424 19.58 16.4402 19.3684 16.3344Z" fill="#EDEFF5"/>
<path fill-rule="evenodd" clip-rule="evenodd" d="M14.5704 12.3529C14.5149 12.4587 14.4729 12.5769 14.3045 12.506C14.2183 12.4699 14.3104 12.3517 14.207 12.3405L14.3985 12.1721C14.4115 12.1999 14.4268 12.2265 14.4398 12.2542C14.4552 12.3245 14.5953 12.2312 14.5704 12.3529Z" fill="#F0F2F6"/>
<path fill-rule="evenodd" clip-rule="evenodd" d="M15.1061 14.9207C15.018 14.9485 15.0813 15.1801 14.8922 15.0791C14.8733 15.0696 14.7905 15.1151 14.8059 15.0885C14.8555 14.9916 14.7444 14.9444 14.7616 14.8669C14.865 14.9119 14.8591 14.7228 14.9649 14.7736C14.9725 14.7795 14.9725 14.8031 14.9779 14.8185C14.9891 14.8918 15.1321 14.8002 15.1061 14.9207Z" fill="#ECEFF4"/>
<path fill-rule="evenodd" clip-rule="evenodd" d="M14.1769 15.605C13.9955 15.6683 14.1309 15.449 14.0269 15.4508C14.0753 15.41 14.1297 15.3338 14.1781 15.3368C14.236 15.3397 14.2892 15.4112 14.3424 15.452C14.2632 15.4786 14.3465 15.6931 14.1769 15.605Z" fill="#D9DFEA"/>
<path fill-rule="evenodd" clip-rule="evenodd" d="M21.1885 17.6959C20.9965 17.7834 21.1832 17.5252 21.055 17.5588C21.042 17.4602 21.2021 17.5198 21.182 17.4158L21.3551 17.5547C21.2848 17.5866 21.3551 17.7875 21.1885 17.6959Z" fill="#D8DEEA"/>
<path fill-rule="evenodd" clip-rule="evenodd" d="M22.4176 17.5535C22.2587 17.6196 22.3562 17.4057 22.2705 17.3845C22.3284 17.3472 22.3893 17.3076 22.446 17.2692C22.4507 17.3567 22.5707 17.3248 22.5837 17.4022C22.4945 17.4075 22.5872 17.6001 22.4176 17.5535ZM23.5226 16.7581C23.3418 16.8497 23.4754 16.6092 23.372 16.6192C23.3926 16.5424 23.5114 16.5714 23.5185 16.4827L23.6881 16.6098C23.5847 16.6068 23.7117 16.8603 23.5226 16.7581Z" fill="#DCE1EC"/>
<path fill-rule="evenodd" clip-rule="evenodd" d="M16.2029 15.6549C16.0138 15.7618 16.1373 15.5225 16.0498 15.5178C16.0587 15.4298 16.1922 15.4676 16.1981 15.3742C16.2158 15.4605 16.3305 15.4357 16.3553 15.5131C16.2424 15.4965 16.4032 15.7678 16.2029 15.6549Z" fill="#D4DAE7"/>
<path fill-rule="evenodd" clip-rule="evenodd" d="M16.9692 13.8598C16.8623 13.8528 16.9993 13.6843 16.8682 13.695C16.8906 13.6004 16.9917 13.6199 17.0472 13.5709C17.0756 13.6306 17.1559 13.6442 17.1601 13.7298C17.1695 13.8864 17.0307 13.8055 16.9692 13.8598Z" fill="#F2F4F7"/>
<path fill-rule="evenodd" clip-rule="evenodd" d="M20.0837 15.1081C19.92 15.2021 20.0063 14.9923 19.9307 14.9693C19.9821 14.9267 20.0317 14.8836 20.0837 14.8398C20.0873 14.9273 20.2545 14.9078 20.2072 14.9752C20.1788 15.0153 20.2704 15.1991 20.0837 15.1081Z" fill="#E6E9F1"/>
<path fill-rule="evenodd" clip-rule="evenodd" d="M19.3506 14.5815C19.1639 14.6005 19.3565 14.4309 19.2354 14.435C19.2826 14.3907 19.3281 14.315 19.3813 14.3103C19.4274 14.3056 19.4806 14.3806 19.5308 14.422C19.4652 14.4852 19.4753 14.6483 19.3506 14.5815Z" fill="#EAEDF3"/>
<path fill-rule="evenodd" clip-rule="evenodd" d="M23.8844 15.9605C23.9228 16.0621 23.9985 16.0757 24.0576 16.1118C23.9973 16.1797 23.9736 16.2837 23.8484 16.2837C23.7201 16.2849 23.807 16.1874 23.7781 16.1419C23.7066 16.0285 23.9707 16.1242 23.8844 15.9605Z" fill="#E4E8F0"/>
<path fill-rule="evenodd" clip-rule="evenodd" d="M22.5464 18.0193C22.5015 18.0861 22.5322 18.1499 22.4129 18.1522C22.2764 18.1546 22.3201 18.0547 22.3142 18.024C22.303 17.9732 22.381 17.9247 22.4259 17.9348C22.4649 17.9419 22.5405 17.9637 22.5464 18.0193Z" fill="#CED5E4"/>
<path fill-rule="evenodd" clip-rule="evenodd" d="M16.162 16.1262C16.0645 16.1374 16.1455 16.2651 16.022 16.2609C15.9091 16.2574 15.9257 16.1812 15.9133 16.1351C15.8938 16.0707 15.9889 16.0724 16.0102 16.024C16.0551 16.0553 16.1006 16.0866 16.162 16.1262Z" fill="#DAE0EB"/>
<path fill-rule="evenodd" clip-rule="evenodd" d="M22.2817 16.8011C22.3237 16.7697 22.3656 16.7408 22.41 16.7112C22.4135 16.7768 22.5547 16.739 22.5075 16.8229C22.488 16.8566 22.5358 16.9488 22.4135 16.9405C22.3036 16.9328 22.3296 16.856 22.2817 16.8011Z" fill="#D8DEE9"/>
<path fill-rule="evenodd" clip-rule="evenodd" d="M21.8326 17.0036C21.8113 17.12 21.7452 17.1389 21.6725 17.1525C21.549 17.1732 21.6417 17.0804 21.6217 17.0449C21.5697 16.9563 21.7008 16.9734 21.7162 16.9155C21.7505 16.9604 21.8291 16.9593 21.8326 17.0036Z" fill="#CBD2E3"/>
<path fill-rule="evenodd" clip-rule="evenodd" d="M21.1414 13.1712C21.1 13.1907 21.155 13.2894 21.0664 13.2611C20.999 13.238 20.9163 13.2061 20.9222 13.1234C20.9245 13.0915 21.0049 13.0649 21.0498 13.0371C21.0575 13.0968 21.1851 13.0773 21.1414 13.1712Z" fill="#D1D8E6"/>
<path fill-rule="evenodd" clip-rule="evenodd" d="M24.4851 15.7631C24.374 15.8069 24.4243 15.7153 24.4048 15.6887C24.3303 15.5876 24.4774 15.6024 24.4851 15.5421C24.5306 15.5723 24.6193 15.6065 24.6157 15.6325C24.6131 15.6663 24.5985 15.6981 24.5746 15.722C24.5506 15.746 24.5189 15.7605 24.4851 15.7631Z" fill="#DADFEA"/>
<path fill-rule="evenodd" clip-rule="evenodd" d="M18.7718 14.8612C18.7718 14.9297 18.9101 14.9026 18.8634 14.9882C18.8445 15.0231 18.8847 15.1165 18.7889 15.097C18.7163 15.0822 18.643 15.0396 18.6406 14.9676C18.6406 14.9339 18.7245 14.8978 18.7718 14.8612Z" fill="#CAD2E2"/>
<path fill-rule="evenodd" clip-rule="evenodd" d="M20.6627 16.9995C20.6083 16.9741 20.6059 16.9026 20.6095 16.8683C20.6154 16.8228 20.6762 16.7614 20.7282 16.7862C20.7602 16.8016 20.8506 16.7927 20.8287 16.8754C20.8086 16.9546 20.7294 16.9658 20.6627 16.9995Z" fill="#D0D7E5"/>
<path fill-rule="evenodd" clip-rule="evenodd" d="M22.9492 16.8956C22.9516 16.895 22.9929 16.8377 23.0396 16.8365C23.0733 16.8353 23.1076 16.905 23.1436 16.944C23.0952 16.9576 23.1365 17.0469 23.0408 17.0457C22.9545 17.0439 22.9545 17.0049 22.9492 16.8956Z" fill="#EFF2F6"/>
<path fill-rule="evenodd" clip-rule="evenodd" d="M19.1476 15.3993C19.1316 15.4632 19.1316 15.5028 19.0749 15.5016C19.017 15.5004 18.9886 15.4791 18.9898 15.42C18.9898 15.3733 19.0205 15.3408 19.0554 15.3438C19.0956 15.3468 19.1529 15.358 19.1476 15.3993Z" fill="#CCD4E3"/>
<path fill-rule="evenodd" clip-rule="evenodd" d="M15.5238 14.4798C15.5522 14.5105 15.5847 14.5347 15.5971 14.566C15.6078 14.592 15.5912 14.6316 15.5546 14.6358C15.5138 14.6393 15.4701 14.6381 15.4571 14.5873C15.4453 14.5377 15.4884 14.5199 15.5238 14.4798Z" fill="#E0E5EE"/>
<path fill-rule="evenodd" clip-rule="evenodd" d="M15.1063 14.9207C15.0903 14.8528 14.9851 14.8959 14.978 14.8179C15.0005 14.877 15.176 14.7452 15.1063 14.9207Z" fill="#7085B1"/>
<path fill-rule="evenodd" clip-rule="evenodd" d="M14.5705 12.3533C14.5575 12.2806 14.4459 12.3379 14.4399 12.2546C14.4713 12.3042 14.6296 12.1867 14.5705 12.3533Z" fill="#5C75A7"/>
<path fill-rule="evenodd" clip-rule="evenodd" d="M21.1237 11.7689C21.1349 11.724 21.171 11.6507 21.1568 11.6372C20.9642 11.4658 21.2212 11.4368 21.2596 11.402C21.3299 11.334 21.3187 11.6206 21.5042 11.4392C21.4044 11.6608 21.2708 11.7246 21.1172 11.7624L21.1237 11.7689Z" fill="#E7EAF2"/>
<path fill-rule="evenodd" clip-rule="evenodd" d="M15.4277 11.5851C15.2398 11.5668 15.407 11.3222 15.3662 11.1804C15.3154 10.9972 15.449 10.9995 15.579 10.9989C15.7805 10.9978 15.8945 11.0829 15.8945 11.2956C15.8939 11.5048 15.797 11.5875 15.4277 11.5851Z" fill="#15A24A"/>
<path fill-rule="evenodd" clip-rule="evenodd" d="M22.6071 12.7657C22.5657 12.8922 22.4127 12.9713 22.3867 13.1273C22.3843 13.148 22.3252 13.1439 22.314 13.0836C22.2667 12.8012 22.2644 12.8017 22.0558 12.953C22.0392 12.9654 22.0103 12.9767 21.9943 12.9713C21.9636 12.9577 21.9512 12.927 21.9695 12.8922C22.0386 12.7574 22.1036 12.6192 22.181 12.4886C22.233 12.4023 22.2963 12.4744 22.3471 12.4992C22.4588 12.5542 22.5964 12.5855 22.6071 12.7657Z" fill="#13A248"/>
<path fill-rule="evenodd" clip-rule="evenodd" d="M23.1359 13.2254C23.0272 13.2691 22.9746 13.187 22.9049 13.1575C22.8576 13.1374 22.8133 13.1185 22.7814 13.171C22.7465 13.2266 22.7814 13.2585 22.8293 13.2833C22.8659 13.3016 22.9049 13.3158 22.9321 13.3448C22.9799 13.395 23.13 13.3814 23.0692 13.4884C23.0213 13.5735 22.9409 13.4742 22.8878 13.4429C22.7962 13.3867 22.6148 13.356 22.6343 13.2585C22.6644 13.1019 22.7536 12.9317 22.8724 12.8242C22.9675 12.7379 23.0727 12.901 23.1797 12.9418C23.2258 12.9589 23.3044 12.9743 23.2908 13.047C23.2778 13.122 23.2222 13.0783 23.1797 13.0682C23.0798 13.0452 22.9829 12.8762 22.9043 12.9932C22.857 13.0629 23.0514 13.0919 23.1129 13.1687C23.1224 13.1799 23.1247 13.1953 23.1359 13.2254ZM24.4094 14.061C24.4271 14.1992 24.3709 14.2932 24.2262 14.2695C24.0761 14.2447 23.962 14.1531 23.936 13.9889C23.9337 13.9723 23.9538 13.9386 23.9703 13.9339C23.9798 13.9308 23.9899 13.9298 23.9999 13.931C24.0098 13.9322 24.0194 13.9356 24.0279 13.9409C24.0364 13.9461 24.0436 13.9532 24.0491 13.9616C24.0546 13.97 24.0581 13.9795 24.0595 13.9895C24.0784 14.1023 24.1375 14.1525 24.2563 14.1549C24.2794 13.97 23.9455 13.8855 24.1375 13.6934C24.2339 13.5971 24.3514 13.6769 24.4354 13.7543C24.5128 13.8246 24.6073 13.902 24.4661 14.0025C24.446 13.9918 24.4188 13.9747 24.404 13.9865C24.3739 14.0066 24.4034 14.0355 24.4094 14.061Z" fill="#11A147"/>
<path fill-rule="evenodd" clip-rule="evenodd" d="M20.328 12.3013C20.2577 12.2617 20.2612 12.2239 20.2725 12.1825C20.2949 12.0945 20.2494 12.0484 20.169 12.0236C20.0887 11.9976 20.0266 12.0011 20.0048 12.1016C19.9971 12.1465 19.9735 12.1778 19.9244 12.1613C19.8677 12.1406 19.896 12.0945 19.9067 12.0608C19.9291 11.9834 19.9492 11.9054 19.9847 11.8315C20.0166 11.7577 19.9941 11.6224 20.1105 11.6312C20.234 11.6401 20.3676 11.6696 20.4616 11.7719C20.5035 11.8168 20.5206 11.8942 20.4864 11.9279C20.3865 12.0307 20.3948 12.176 20.328 12.3013Z" fill="#0FA046"/>
<path fill-rule="evenodd" clip-rule="evenodd" d="M16.6815 11.5488C16.4906 11.6209 16.3399 11.579 16.1928 11.5819C16.126 11.5837 16.1201 11.5334 16.1201 11.4826C16.1248 11.4265 16.1248 11.3698 16.1248 11.3136C16.1319 11.0022 16.2424 10.9225 16.5485 11.0093C16.5828 11.0188 16.6153 11.0247 16.6177 11.0631C16.6177 11.1163 16.5793 11.1257 16.532 11.1245C16.5255 11.1234 16.5178 11.1216 16.5095 11.1228C16.4179 11.1452 16.2537 11.0418 16.2507 11.1789C16.2472 11.2841 16.4262 11.2096 16.5178 11.2451C16.5308 11.2504 16.545 11.2622 16.5651 11.277C16.5072 11.3816 16.4108 11.3231 16.3364 11.3355C16.2921 11.3426 16.2342 11.3231 16.2277 11.3952C16.2194 11.4803 16.2785 11.4761 16.3364 11.482C16.4351 11.4939 16.542 11.4566 16.6815 11.5488Z" fill="#0B9F43"/>
<path fill-rule="evenodd" clip-rule="evenodd" d="M15.1129 11.5939C15.0101 11.5715 15.0243 11.5124 15.0065 11.471C14.9758 11.3948 14.9149 11.3948 14.8482 11.4001C14.7719 11.4072 14.7306 11.4367 14.7371 11.5212C14.7418 11.5626 14.7583 11.6294 14.6815 11.6199C14.6153 11.6116 14.6343 11.5472 14.6307 11.5035C14.6248 11.432 14.6177 11.3587 14.6248 11.2878C14.6343 11.2086 14.5586 11.0875 14.6727 11.0591C14.7903 11.0284 14.9262 11.0065 15.0485 11.065C15.1017 11.0905 15.1436 11.1525 15.1241 11.2027C15.0792 11.3292 15.1147 11.4574 15.1129 11.5939Z" fill="#079D3F"/>
<path fill-rule="evenodd" clip-rule="evenodd" d="M13.8652 11.393C13.8841 11.2329 13.9545 11.1029 14.13 11.1088C14.2984 11.1141 14.3882 11.2311 14.3882 11.3995C14.3882 11.5667 14.3102 11.682 14.1323 11.6808C13.9515 11.6796 13.8901 11.5484 13.8652 11.393Z" fill="#15A24A"/>
<path fill-rule="evenodd" clip-rule="evenodd" d="M25.1143 14.3945C25.0977 14.5535 25.0191 14.6734 24.8377 14.6894C24.6705 14.703 24.5818 14.6073 24.5688 14.4501C24.5541 14.2911 24.7101 14.1393 24.869 14.1404C25.0085 14.1416 25.1107 14.2427 25.1143 14.3945Z" fill="#11A147"/>
<path fill-rule="evenodd" clip-rule="evenodd" d="M21.7971 12.5448C21.9306 12.6524 21.7687 12.7233 21.7628 12.8137C21.6517 12.7623 21.5128 12.783 21.423 12.6855C21.3273 12.5815 21.345 12.4639 21.4077 12.3493C21.4768 12.2281 21.5832 12.1761 21.7138 12.2222C21.8331 12.2648 21.9223 12.3451 21.8644 12.4964C21.7728 12.5129 21.6978 12.3924 21.569 12.4733C21.6547 12.5129 21.7575 12.458 21.7971 12.5448Z" fill="#0C9F43"/>
<path fill-rule="evenodd" clip-rule="evenodd" d="M18.5823 11.328C18.5043 11.4196 18.447 11.3841 18.3932 11.3853C18.3412 11.3853 18.2857 11.3422 18.2213 11.396C18.2792 11.4905 18.4192 11.4296 18.4736 11.5236C18.4659 11.5372 18.4624 11.5555 18.4523 11.565C18.3743 11.6264 18.2497 11.4775 18.2012 11.6004C18.1569 11.7062 18.2733 11.6696 18.3235 11.6873C18.3802 11.7097 18.4506 11.7015 18.5191 11.7783C18.3602 11.848 18.1705 11.8155 18.1049 11.7387C18.0015 11.6176 18.0742 11.4025 18.1527 11.2949C18.2455 11.1679 18.4151 11.292 18.5823 11.328Z" fill="#19A44D"/>
<path fill-rule="evenodd" clip-rule="evenodd" d="M19.5901 11.8422C19.456 11.828 19.3035 11.7335 19.2651 11.9545C19.264 11.9616 19.2173 11.9716 19.2031 11.9621C19.1871 11.9533 19.1783 11.9202 19.1812 11.9013C19.2161 11.7612 19.2338 11.6111 19.2959 11.4853C19.368 11.3435 19.4903 11.4634 19.5913 11.477C19.7119 11.493 19.7786 11.5662 19.7656 11.6933C19.7538 11.8026 19.6711 11.8321 19.5901 11.8422Z" fill="#0D9F44"/>
<path fill-rule="evenodd" clip-rule="evenodd" d="M21.1886 12.1807C21.1756 12.3585 21.0881 12.4815 20.9103 12.4868C20.7513 12.4927 20.6621 12.381 20.6656 12.2226C20.6704 12.0513 20.7537 11.9272 20.9386 11.9219C21.1082 11.916 21.1738 12.03 21.1886 12.1807Z" fill="#0FA046"/>
<path fill-rule="evenodd" clip-rule="evenodd" d="M17.2051 11.539C17.1856 11.581 17.1697 11.6407 17.1135 11.6271C17.016 11.604 17.0598 11.5101 17.0361 11.4486C16.964 11.3783 16.9829 11.4752 16.9605 11.4929C16.9522 11.5367 16.9723 11.6034 16.9132 11.6123C16.8405 11.6212 16.8577 11.5514 16.8594 11.5101C16.8654 11.4238 16.8665 11.3334 16.8902 11.2507C16.9109 11.1798 16.8358 11.0492 16.977 11.048C17.1017 11.0474 17.0745 11.1744 17.0905 11.2507C17.107 11.3381 17.1159 11.3754 17.1874 11.2885C17.2613 11.269 17.2766 11.3228 17.2938 11.3748C17.3032 11.4504 17.2695 11.503 17.2051 11.539Z" fill="#0EA044"/>
<path fill-rule="evenodd" clip-rule="evenodd" d="M23.4988 13.709C23.5425 13.709 23.5869 13.7669 23.6294 13.7173C23.6619 13.68 23.633 13.6434 23.604 13.6133C23.5827 13.5902 23.5603 13.5683 23.5402 13.5435C23.4799 13.4708 23.3954 13.4011 23.4787 13.2959C23.5544 13.1996 23.6424 13.2233 23.7299 13.2841C23.7458 13.3148 23.7405 13.3444 23.724 13.3722C23.6595 13.4732 23.7795 13.5347 23.7771 13.6209C23.7955 13.7019 23.8073 13.7834 23.718 13.8301C23.607 13.8892 23.5213 13.8348 23.4397 13.7639C23.4309 13.7173 23.448 13.6942 23.4988 13.709Z" fill="#10A146"/>
<path fill-rule="evenodd" clip-rule="evenodd" d="M21.7973 12.5449C21.7518 12.5768 21.6602 12.4734 21.6632 12.5514C21.6691 12.6897 21.5999 12.6772 21.5355 12.6365C21.4487 12.5827 21.4439 12.4905 21.4989 12.4054C21.5521 12.3221 21.6271 12.2737 21.7181 12.3416C21.7737 12.3824 21.8156 12.4438 21.8635 12.4964L21.7973 12.5449Z" fill="#ECF7F0"/>
<path fill-rule="evenodd" clip-rule="evenodd" d="M17.2442 11.3986C17.2269 11.3621 17.208 11.3264 17.1875 11.2916C17.2082 11.239 17.2271 11.1859 17.2519 11.135C17.2744 11.0872 17.3134 11.0606 17.3683 11.0783C17.4298 11.099 17.425 11.1463 17.4215 11.1959C17.4085 11.3407 17.3967 11.4849 17.3855 11.6296C17.2992 11.6846 17.2773 11.6344 17.2631 11.5599C17.2525 11.5061 17.2803 11.4482 17.2442 11.3986Z" fill="#17A34C"/>
<path fill-rule="evenodd" clip-rule="evenodd" d="M23.7791 13.6203C23.7259 13.5659 23.6692 13.5145 23.6195 13.4566C23.5616 13.388 23.5841 13.3461 23.6703 13.3349C23.795 13.3626 23.8712 13.4229 23.8346 13.5659C23.8175 13.5836 23.7986 13.6025 23.7791 13.6203Z" fill="#D7EFE0"/>
<path fill-rule="evenodd" clip-rule="evenodd" d="M23.8347 13.566C23.7774 13.4915 23.762 13.3851 23.6704 13.3349L23.7319 13.2835C23.8311 13.3538 24.0125 13.394 23.8347 13.566Z" fill="#2BAB5B"/>
<path fill-rule="evenodd" clip-rule="evenodd" d="M24.4094 14.061C24.4017 14.0562 24.3917 14.0539 24.3881 14.0474C24.3408 13.9599 24.1843 13.8813 24.2374 13.8039C24.3042 13.7105 24.3739 13.821 24.4106 13.9008C24.4271 13.9345 24.4472 13.9676 24.4661 14.0025C24.4466 14.022 24.4271 14.0415 24.4094 14.061Z" fill="#E6F5EC"/>
<path fill-rule="evenodd" clip-rule="evenodd" d="M23.4988 13.7091C23.4799 13.7274 23.4616 13.7464 23.4397 13.7647C23.4149 13.7469 23.3806 13.7345 23.3647 13.7091C23.3345 13.6518 23.2482 13.5756 23.3481 13.5307C23.432 13.4905 23.432 13.5974 23.4592 13.6494C23.4704 13.6713 23.4846 13.6896 23.4988 13.7091Z" fill="#29AA59"/>
<path fill-rule="evenodd" clip-rule="evenodd" d="M17.2442 11.3988C17.3305 11.4325 17.285 11.5046 17.2861 11.5584C17.2909 11.6322 17.3169 11.6571 17.386 11.6311C17.2418 11.7705 17.2601 11.5844 17.2046 11.543C17.2194 11.494 17.2306 11.4461 17.2442 11.3988Z" fill="#DDF1E4"/>
<path fill-rule="evenodd" clip-rule="evenodd" d="M16.9575 11.4933V11.303C17.0391 11.329 17.0414 11.3864 17.0332 11.449C17.0083 11.4638 16.9823 11.4779 16.9575 11.4933Z" fill="#6FC690"/>
<path fill-rule="evenodd" clip-rule="evenodd" d="M15.4849 11.2982C15.4931 11.212 15.4518 11.0997 15.5989 11.1091C15.7065 11.1156 15.7845 11.1588 15.7904 11.2817C15.7963 11.4141 15.7189 11.4678 15.5965 11.4767C15.4411 11.4891 15.5044 11.3668 15.4849 11.2982Z" fill="#F5FBF7"/>
<path fill-rule="evenodd" clip-rule="evenodd" d="M22.2994 12.5986C22.3608 12.6322 22.4548 12.6387 22.4749 12.7297C22.4849 12.777 22.4441 12.8083 22.4022 12.7947C22.3242 12.7711 22.2208 12.7699 22.2101 12.66C22.2072 12.6281 22.2415 12.5879 22.2994 12.5986Z" fill="#EFF8F3"/>
<path fill-rule="evenodd" clip-rule="evenodd" d="M20.383 11.8716C20.367 11.933 20.3239 11.9543 20.2742 11.936C20.2075 11.9118 20.0999 11.9384 20.0987 11.8214C20.0964 11.7605 20.1377 11.7422 20.1933 11.7605C20.2665 11.7841 20.3552 11.7812 20.383 11.8716Z" fill="#DEF2E5"/>
<path fill-rule="evenodd" clip-rule="evenodd" d="M14.8627 11.1443C14.9206 11.1514 15.0122 11.1207 15.0063 11.2194C15.0004 11.3057 14.9129 11.2921 14.8503 11.2933C14.8001 11.295 14.728 11.321 14.7233 11.2306C14.7197 11.1231 14.8036 11.1568 14.8627 11.1443Z" fill="#F3FAF5"/>
<path fill-rule="evenodd" clip-rule="evenodd" d="M14.1154 11.2263C14.2223 11.2334 14.2755 11.2972 14.2796 11.3977C14.2855 11.4875 14.2412 11.5643 14.149 11.5726C14.0427 11.5826 13.9948 11.5017 13.9889 11.403C13.983 11.312 14.0185 11.2458 14.1154 11.2263Z" fill="#F3FAF6"/>
<path fill-rule="evenodd" clip-rule="evenodd" d="M24.9969 14.4155C24.9815 14.5135 24.9224 14.5827 24.8084 14.5827C24.7168 14.5815 24.6825 14.5147 24.6919 14.4338C24.7008 14.3239 24.7664 14.253 24.8781 14.2547C24.9661 14.2571 25.0004 14.3203 24.9969 14.4155Z" fill="#F9FCFA"/>
<path fill-rule="evenodd" clip-rule="evenodd" d="M19.4514 11.5514C19.5111 11.588 19.631 11.5502 19.6482 11.6684C19.6535 11.7133 19.6039 11.7363 19.5643 11.7275C19.4869 11.7103 19.3787 11.7381 19.3693 11.6134C19.3675 11.575 19.3846 11.5336 19.4514 11.5514Z" fill="#E7F5EC"/>
<path fill-rule="evenodd" clip-rule="evenodd" d="M21.0702 12.1945C21.059 12.2968 21.0087 12.3683 20.9053 12.3683C20.8037 12.3694 20.7677 12.2985 20.7724 12.2052C20.7807 12.1024 20.8392 12.0338 20.939 12.0297C21.0383 12.0261 21.0702 12.1053 21.0702 12.1945Z" fill="#F5FBF7"/>
</svg>
