<svg width="39" height="26" viewBox="0 0 39 26" fill="none" xmlns="http://www.w3.org/2000/svg">
<path d="M23.0235 26H32.478C33.6462 26 34.639 25.7365 35.4633 25.2773L23.0235 17.8567V26ZM38.1862 21.3968C38.3209 20.7959 38.3895 20.1595 38.3895 19.4994V16.5449H30.0517L38.1838 21.3968M0.775736 4.58486C0.635693 5.21355 0.566323 5.85591 0.568918 6.5V9.45455H8.93855L0.775736 4.58486ZM15.9326 0H6.47801C5.31805 0 4.33183 0.26 3.51105 0.712637L15.9326 8.12264V0ZM3.54887 25.3063C4.36196 25.7459 5.33519 26 6.47801 26H15.9326V17.9187L3.54887 25.3063ZM0.568918 16.5455V19.5C0.568918 20.1801 0.641009 20.8355 0.783418 21.4518L9.00828 16.5455H0.568918ZM35.5005 0.741591C34.6697 0.270046 33.6634 0 32.478 0H23.0235V8.18468L35.5005 0.741591ZM38.3871 9.45455V6.5C38.3871 5.85355 38.3203 5.23014 38.1909 4.64041L30.1215 9.45455H38.3871Z" fill="#2E3192"/>
<path d="M30.1214 9.45455L38.1908 4.64041C37.8209 2.94805 36.9204 1.547 35.5004 0.741591L23.0234 8.18468V0H21.8416V10.6364H38.387V9.45455H30.1214ZM0.568848 15.3636V16.5455H9.00821L0.783348 21.4518C1.17394 23.1388 2.10167 24.5239 3.5488 25.3063L15.9325 17.9187V26H17.1143V15.3636H0.568848ZM38.387 15.3636H21.8416V26H23.0234V17.8567L35.4632 25.2779C36.8938 24.4814 37.8056 23.088 38.1838 21.398L30.0517 16.5455H38.387V15.3636ZM15.9325 0V8.12264L3.51098 0.712637C2.07507 1.50445 1.15739 2.89545 0.775075 4.58486L8.93848 9.45455H0.568848V10.6364H17.1143V0H15.9325Z" fill="#E6E7E8"/>
<path d="M21.8416 10.6364V0H17.1143V10.6364H0.568848V15.3636H17.1143V26H21.8416V15.3636H38.387V10.6364H21.8416Z" fill="#BE1E2D"/>
<path d="M13.5325 9.45433L1.68478 2.38173C1.4301 2.75992 1.22564 3.17592 1.05664 3.6191L10.8344 9.45433H13.5307M37.8496 22.5075L27.9146 16.5452H25.1634L37.1665 23.7656C37.4448 23.3766 37.6743 22.9549 37.8496 22.5099M36.4485 1.41264L23.0054 9.45433L25.7348 9.4561L37.3349 2.51114C37.0761 2.04019 36.8031 1.73646 36.4485 1.41264ZM1.64046 23.5623C1.90627 23.9671 2.22615 24.3337 2.59123 24.6519L15.97 16.5452H13.2737L1.64046 23.5623Z" fill="#BE1E2D"/>
</svg>
