<svg width="197" height="36" viewBox="0 0 197 36" fill="none" xmlns="http://www.w3.org/2000/svg">
<path d="M24.9026 22.9247C24.9026 27.2077 21.5568 31.5233 15.1604 31.5233C11.4866 31.5233 7.58319 29.1693 5.31986 26.7826C5.25425 25.9653 5.25425 18.9687 5.31986 18.0533C7.32077 15.9936 10.2729 13.705 15.226 13.705C19.9167 13.7377 24.9026 16.1243 24.9026 22.9247ZM15.4884 9.45474C10.6994 9.45474 8.00961 10.9587 5.35266 12.8876V2.62168C5.35266 1.67355 4.56542 0.888885 3.61416 0.888885H0.497984V30.0193L0.0387573 35.0869H2.20368H2.92532C4.2046 35.0869 4.49981 34.2042 4.66382 33.4195L5.05744 31.8829C7.97681 34.2042 10.5682 35.8062 15.9477 35.8062C26.1162 35.8062 29.7901 28.025 29.7901 22.8266C29.7244 17.8244 26.7395 9.45474 15.4884 9.45474ZM37.2689 19.5899C38.4825 15.6993 41.5003 13.6396 46.0598 13.6396C52.6858 13.6396 54.5883 17.8244 55.1131 19.5899H37.2689ZM45.7318 9.35667C37.8265 9.35667 32.0862 14.8493 32.0862 22.4343C32.0862 30.1501 38.0233 35.7408 46.191 35.7408C54.0962 35.7408 56.786 32.8637 59.1477 30.3463L60.0334 29.3982L56.13 26.6192L55.6707 27.2077C54.2274 29.0058 52.2265 31.4579 46.519 31.4579C40.7131 31.4579 37.5969 27.6981 37.0065 23.8729H60.3942L60.427 22.9247C60.427 18.9687 59.2461 15.7647 56.9172 13.4107C54.3258 10.7952 50.3568 9.35667 45.7318 9.35667ZM75.0894 31.5887C71.4812 31.5887 70.7596 30.379 70.7596 28.2866V14.457H80.2721V11.9395C80.2721 10.9914 79.4849 10.2067 78.5336 10.2067H70.7268V4.02752C70.7268 3.07939 69.9395 2.32743 68.9883 2.32743H65.8721V10.2394H60.8206V14.5223H65.9049V28.6789C65.9049 30.6405 65.9049 35.8716 74.3022 35.8716C75.8439 35.8716 77.7464 35.61 80.4361 35.185L80.9282 35.1196V30.7713L79.9113 30.9675C78.0744 31.3271 76.7295 31.5887 75.0894 31.5887ZM96.8371 20.0476C92.7696 19.5572 89.2598 19.1649 89.2598 16.9744C89.2598 14.0973 93.1961 13.6723 95.5578 13.6723C99.6252 13.6723 102.709 15.0128 104.841 17.7264L105.234 18.2168L108.58 15.1762L108.285 14.7839C107.334 13.4434 104.447 9.38936 95.6234 9.38936C90.2439 9.38936 84.4708 11.4491 84.4708 17.2033C84.4708 23.0882 90.7687 23.8402 96.3122 24.5267C100.609 25.0498 104.349 25.5076 104.349 28.0577C104.349 30.6405 100.609 31.5233 97.4275 31.5233C93.0649 31.5233 89.5879 29.9213 87.0621 26.7172L86.6685 26.2268L83.0603 29.4962L83.4211 29.9213C86.8653 33.91 91.1952 35.7735 97.0995 35.7735C104.775 35.7735 109.203 32.8637 109.203 27.7635C109.171 21.5189 102.61 20.7342 96.8371 20.0476ZM125.276 20.0476C121.209 19.5572 117.699 19.1649 117.699 16.9744C117.699 14.0973 121.635 13.6723 123.997 13.6723C128.064 13.6723 131.148 15.0128 133.28 17.7264L133.674 18.2168L137.019 15.1762L136.724 14.7839C135.773 13.4434 132.886 9.38936 124.063 9.38936C118.683 9.38936 112.91 11.4491 112.91 17.2033C112.91 23.0882 119.208 23.8402 124.751 24.5267C129.049 25.0498 132.788 25.5076 132.788 28.0577C132.788 30.6405 129.049 31.5233 125.867 31.5233C121.504 31.5233 118.027 29.9213 115.501 26.7172L115.108 26.2268L111.5 29.4962L111.86 29.9213C115.305 33.91 119.634 35.7735 125.539 35.7735C133.214 35.7735 137.643 32.8637 137.643 27.7635C137.577 21.5189 131.049 20.7342 125.276 20.0476ZM163.786 22.6305C163.786 28.0904 160.177 31.5233 154.306 31.5233C148.5 31.5233 144.793 28.025 144.793 22.6305C144.793 18.3149 147.778 13.705 154.306 13.705C160.834 13.705 163.786 18.1514 163.786 22.6305ZM154.306 9.42205C145.974 9.42205 139.939 14.7839 139.939 22.1728C139.939 30.5751 145.449 35.8062 154.306 35.8062C163.162 35.8062 168.64 30.5751 168.64 22.1728C168.64 14.7839 162.638 9.42205 154.306 9.42205ZM186.386 9.42205C183.073 9.42205 179.957 10.599 176.906 12.9857V11.8741C176.906 10.926 176.119 10.1413 175.168 10.1413H172.052V35.0542H176.906V18.1187C178.547 16.4186 181.827 13.6723 185.96 13.6723C188.059 13.6723 189.601 14.1954 190.618 15.2089C191.569 16.1897 192.028 17.6283 191.995 19.5245V35.0869H196.85V18.8053C196.817 10.6317 190.29 9.42205 186.386 9.42205Z" fill="white"/>
</svg>
