<svg width="224" height="65" viewBox="0 0 224 65" fill="none" xmlns="http://www.w3.org/2000/svg">
<g clip-path="url(#clip0_35_9112)">
<path d="M33.3569 7.49502C28.6141 7.38062 23.937 8.61988 19.8731 11.0677C15.8092 13.5154 12.5269 17.0704 10.4105 21.3163C8.29417 25.5623 7.43133 30.3232 7.92307 35.0418C8.41482 39.7604 10.2408 44.2411 13.1872 47.9594C13.6583 48.5517 14.3184 48.9645 15.0571 49.1291C15.7958 49.2938 16.5686 49.2002 17.2467 48.8642L21.8953 46.5875V43.6563L16.0723 46.5086C15.935 46.5787 15.7774 46.5983 15.6271 46.564C15.4768 46.5297 15.3433 46.4437 15.2498 46.3211C11.7077 41.8566 10.0078 36.2061 10.4985 30.5283C10.9892 24.8504 13.6334 19.5754 17.8889 15.7847C22.1445 11.994 27.6889 9.975 33.3855 10.1415C39.0821 10.308 44.4992 12.6474 48.5261 16.6801C48.9778 17.1297 49.4055 17.5947 49.8091 18.075H53.1285C52.3088 16.9148 51.392 15.8264 50.3881 14.8214C45.871 10.2702 39.7673 7.64464 33.3569 7.49502Z" fill="#0E1052" fill-opacity="0.6"/>
<path d="M53.1321 18.0947H49.8061C53.3108 22.2247 55.1895 27.491 55.0902 32.9067C54.9909 38.3226 52.9203 43.5164 49.2666 47.5152C43.3746 53.8646 34.3014 56.3384 26.1559 53.8152C26.0156 53.7774 25.8918 53.6944 25.8037 53.5789C25.7157 53.4635 25.6682 53.3221 25.669 53.177V44.7419L45.3189 35.1226C45.8224 34.867 46.2424 34.4727 46.5292 33.9864C46.8161 33.4999 46.9579 32.9416 46.9378 32.3772C46.9178 31.8128 46.7367 31.266 46.416 30.8012C46.0954 30.3363 45.6484 29.9728 45.128 29.7536L27.1756 21.2167L27.1032 21.187C26.6541 21.0064 26.1675 20.9384 25.6861 20.9894C25.2047 21.0404 24.7431 21.2087 24.3418 21.4794C23.9405 21.7502 23.6117 22.1153 23.3842 22.5427C23.1568 22.97 23.0376 23.4466 23.0371 23.9308V43.097L21.8955 43.6563V46.5875L23.0371 46.0316V53.1605C23.0366 53.8674 23.2639 54.5557 23.6851 55.1233C24.1064 55.691 24.6993 56.1078 25.3762 56.3121C27.7203 57.0365 30.1601 57.4047 32.6137 57.4043C36.102 57.3974 39.5515 56.673 42.748 55.2763C45.9445 53.8795 48.8195 51.8402 51.1944 49.2851C55.0322 45.0899 57.3176 39.7069 57.6701 34.032C58.0226 28.3572 56.4211 22.7326 53.1321 18.0947ZM25.669 23.9308C25.669 23.8435 25.7036 23.7598 25.7652 23.6981C25.827 23.6364 25.9107 23.6018 25.9979 23.6018C26.0326 23.6013 26.0671 23.6069 26.0999 23.6182L44.0358 32.1453L44.1081 32.1782C44.1678 32.1998 44.2192 32.2391 44.2557 32.2909C44.2922 32.3427 44.3119 32.4044 44.3122 32.4677C44.3193 32.5281 44.3076 32.5893 44.2788 32.6429C44.2499 32.6964 44.2053 32.7398 44.1509 32.7671L25.669 41.8107V23.9308Z" fill="#0E1052"/>
<path d="M32.7583 12.4033C37.8125 12.4017 42.679 14.3182 46.3747 17.7657L44.0719 17.5518C40.7313 15.0293 36.6421 13.6982 32.4567 13.771C28.2713 13.8436 24.2309 15.3158 20.9797 17.9528C17.7287 20.5898 15.4544 24.2395 14.5197 28.3199C13.585 32.4002 14.0436 36.6761 15.8225 40.4652C15.8622 40.5436 15.8858 40.629 15.892 40.7165C15.8981 40.8041 15.8867 40.8919 15.8583 40.975C15.83 41.0581 15.7854 41.1346 15.727 41.2001C15.6687 41.2657 15.5978 41.3189 15.5186 41.3567C15.4394 41.3944 15.3534 41.4159 15.2657 41.4199C15.1781 41.424 15.0905 41.4104 15.0082 41.38C14.9258 41.3498 14.8503 41.3032 14.7863 41.2433C14.7222 41.1834 14.6707 41.1112 14.6349 41.0311C13.1949 37.9748 12.5497 34.6046 12.7594 31.2326C12.969 27.8606 14.0266 24.5961 15.834 21.7418C17.6414 18.8874 20.1402 16.5355 23.0987 14.9042C26.0574 13.2729 29.3799 12.415 32.7583 12.4099V12.4033Z" fill="#0E1052" fill-opacity="0.6"/>
<path d="M50.1484 22.4833C49.9806 22.1905 49.8029 21.901 49.6187 21.6181C49.8062 21.901 49.9806 22.1905 50.1484 22.4833Z" fill="#0E1052" fill-opacity="0.6"/>
<path d="M22.9808 6.21858L21.7932 2.96169C21.7479 2.83503 21.6772 2.71897 21.5854 2.62063C21.4937 2.5223 21.3828 2.44376 21.2595 2.38984C21.1363 2.33593 21.0033 2.30777 20.8687 2.30711C20.7343 2.30644 20.601 2.33328 20.4773 2.38597C19.2363 2.89092 18.0277 3.47213 16.8585 4.12628C16.7414 4.19067 16.6387 4.27816 16.5564 4.38347C16.474 4.48879 16.414 4.60969 16.3799 4.73889C16.3458 4.86809 16.3382 5.00287 16.3577 5.13508C16.3772 5.26728 16.4234 5.39414 16.4933 5.50799L18.306 8.4688C18.4387 8.68476 18.6493 8.84143 18.8943 8.90635C19.1392 8.97127 19.3997 8.93946 19.622 8.81751C20.5245 8.31446 21.4561 7.86517 22.4117 7.47199C22.6511 7.37835 22.8445 7.19498 22.9509 6.96089C23.0571 6.7268 23.0679 6.46047 22.9808 6.21858Z" fill="#0E1052" fill-opacity="0.6"/>
<path d="M30.054 5.55738C30.5705 5.50475 31.0837 5.46856 31.5969 5.44553C31.8512 5.4345 32.0914 5.32567 32.2673 5.14176C32.4432 4.95787 32.5413 4.7131 32.5411 4.45859V0.987864C32.5412 0.854579 32.5143 0.72265 32.4621 0.600033C32.4098 0.477417 32.3333 0.366655 32.2371 0.274428C32.1409 0.1822 32.0269 0.110419 31.9022 0.0634131C31.7775 0.0164074 31.6446 -0.00484862 31.5114 0.000927126C30.8535 0.0272455 30.1955 0.0733025 29.5112 0.139098C28.8269 0.204894 28.1756 0.297008 27.5374 0.402282C27.4057 0.423504 27.2798 0.471159 27.1672 0.542371C27.0545 0.613584 26.9574 0.706879 26.8818 0.81663C26.8061 0.926379 26.7535 1.05031 26.7271 1.18095C26.7007 1.31159 26.701 1.44622 26.728 1.57674L27.4156 4.97838C27.4667 5.22733 27.6118 5.44699 27.8207 5.59161C28.0297 5.73624 28.2864 5.79468 28.5374 5.75477C29.0276 5.67581 29.5375 5.61002 30.054 5.55738Z" fill="#0E1052" fill-opacity="0.6"/>
<path d="M14.6019 11.1499L12.3682 8.48522C12.2823 8.38299 12.1768 8.29919 12.0578 8.23891C11.9388 8.17863 11.8088 8.14312 11.6756 8.1345C11.5425 8.12589 11.4089 8.14438 11.2831 8.18882C11.1573 8.23326 11.0419 8.30276 10.9437 8.3931C9.95488 9.29243 9.02109 10.2504 8.14732 11.2618C8.05925 11.3625 7.99256 11.4801 7.95133 11.6074C7.91011 11.7346 7.8952 11.869 7.9075 12.0023C7.91981 12.1355 7.95908 12.2648 8.02294 12.3824C8.08678 12.5 8.17387 12.6034 8.27891 12.6863L10.9996 14.851C11.1984 15.0081 11.4499 15.0828 11.7022 15.0595C11.9546 15.0362 12.1883 14.9168 12.355 14.726C13.0311 13.9438 13.7517 13.2013 14.5131 12.502C14.6976 12.3306 14.8096 12.0951 14.8262 11.8436C14.8427 11.5923 14.7624 11.344 14.6019 11.1499Z" fill="#0E1052" fill-opacity="0.6"/>
<path d="M42.1279 6.07048L43.3154 2.807C43.3617 2.6815 43.382 2.54791 43.3749 2.41435C43.3679 2.28079 43.3339 2.15004 43.2748 2.03005C43.2157 1.91006 43.1329 1.80332 43.0313 1.71634C42.9297 1.62934 42.8115 1.5639 42.6838 1.52399C41.4125 1.11564 40.1171 0.786037 38.8051 0.537054C38.6739 0.511128 38.5388 0.512152 38.4079 0.540063C38.2771 0.567975 38.1533 0.622194 38.0441 0.699423C37.9349 0.776652 37.8425 0.875281 37.7726 0.989318C37.7027 1.10336 37.6566 1.23042 37.6373 1.36279L37.1274 4.80062C37.0875 5.05207 37.1464 5.30918 37.2918 5.51824C37.437 5.72729 37.6575 5.87211 37.907 5.92243C38.9208 6.1183 39.9225 6.37202 40.9074 6.68238C41.1504 6.75734 41.4131 6.73553 41.6405 6.62153C41.8679 6.50752 42.0424 6.31011 42.1279 6.07048Z" fill="#0E1052" fill-opacity="0.6"/>
<path d="M50.5824 10.8736L52.8161 8.22534C52.9017 8.1231 52.9656 8.00458 53.0041 7.87693C53.0427 7.74929 53.0549 7.61516 53.0402 7.48265C53.0255 7.35014 52.9839 7.222 52.9183 7.10594C52.8527 6.9899 52.7641 6.88835 52.6582 6.80745C51.6038 5.98768 50.4996 5.23397 49.3519 4.55065C49.2376 4.48105 49.1101 4.43546 48.9775 4.41668C48.8449 4.39789 48.7099 4.4063 48.5806 4.44138C48.4513 4.47647 48.3305 4.5375 48.2256 4.62076C48.1207 4.70403 48.0338 4.80777 47.9703 4.92569L46.3254 7.97861C46.2043 8.20194 46.174 8.46336 46.2408 8.70848C46.3076 8.95359 46.4664 9.1635 46.684 9.29452C47.5685 9.82662 48.4219 10.4087 49.2401 11.0381C49.4427 11.1867 49.6944 11.2524 49.9439 11.2219C50.1933 11.1913 50.4216 11.0668 50.5824 10.8736Z" fill="#0E1052" fill-opacity="0.6"/>
<path d="M56.8889 18.2658L59.8991 16.5288C60.0141 16.4613 60.1142 16.3713 60.1935 16.264C60.2727 16.1569 60.3295 16.0347 60.3603 15.9049C60.391 15.7752 60.3951 15.6405 60.3724 15.5092C60.3497 15.3778 60.3006 15.2523 60.228 15.1404C59.5166 14.0114 58.7366 12.927 57.8923 11.8935C57.8084 11.7894 57.7043 11.7033 57.5862 11.6407C57.4682 11.578 57.3386 11.54 57.2054 11.529C57.0722 11.5179 56.9381 11.534 56.8114 11.5763C56.6845 11.6185 56.5676 11.6862 56.4678 11.775L53.8623 14.0779C53.672 14.2461 53.5538 14.4811 53.5323 14.7342C53.5109 14.9872 53.5878 15.2387 53.7471 15.4366C54.3981 16.2378 55.0021 17.0759 55.5565 17.9467C55.6941 18.162 55.9098 18.3156 56.1583 18.3751C56.4068 18.4346 56.6687 18.3954 56.8889 18.2658Z" fill="#0E1052" fill-opacity="0.6"/>
<path d="M8.41045 18.6408L5.397 16.9039C5.28135 16.8368 5.1533 16.794 5.02061 16.7779C4.88792 16.7619 4.75335 16.7731 4.62507 16.8105C4.4968 16.8481 4.37747 16.9113 4.27435 16.9963C4.17123 17.0813 4.08644 17.1864 4.02515 17.3051C3.40171 18.4849 2.85235 19.7022 2.38027 20.9502C2.33148 21.075 2.3086 21.2085 2.31304 21.3424C2.31749 21.4762 2.34914 21.6078 2.40608 21.7291C2.46303 21.8504 2.54407 21.9588 2.64426 22.0477C2.74445 22.1367 2.8617 22.2043 2.98887 22.2465L6.27866 23.3518C6.52014 23.4343 6.78422 23.4202 7.01547 23.3123C7.24671 23.2043 7.42715 23.0109 7.51891 22.7728C7.88984 21.8082 8.31603 20.8657 8.79535 19.9501C8.9122 19.7244 8.93738 19.4622 8.86568 19.2183C8.79398 18.9743 8.6309 18.7674 8.41045 18.6408Z" fill="#0E1052" fill-opacity="0.6"/>
<path d="M60.2807 27.3785L63.7054 26.7765C63.8372 26.7535 63.9629 26.7039 64.0751 26.6308C64.1871 26.5577 64.2832 26.4625 64.3573 26.3511C64.4314 26.2397 64.4822 26.1145 64.5064 25.9828C64.5307 25.8512 64.5278 25.716 64.4982 25.5855C64.2189 24.2799 63.8573 22.9933 63.4158 21.7332C63.373 21.6078 63.3051 21.4924 63.2167 21.3937C63.1281 21.2951 63.0205 21.2153 62.9005 21.1591C62.7805 21.103 62.6503 21.0715 62.5179 21.0667C62.3854 21.0619 62.2533 21.0839 62.1295 21.1312L58.8924 22.4076C58.657 22.5007 58.4663 22.6805 58.3597 22.9101C58.2532 23.1397 58.239 23.4015 58.3199 23.6413C58.6576 24.6175 58.9377 25.6128 59.1588 26.6219C59.2143 26.8671 59.3612 27.0821 59.5697 27.2227C59.7782 27.3633 60.0325 27.419 60.2807 27.3785Z" fill="#0E1052"/>
<path d="M5.23263 37.5242L1.80467 38.1263C1.67284 38.1492 1.54706 38.1988 1.43498 38.2719C1.32291 38.345 1.22687 38.4402 1.15271 38.5516C1.07855 38.6629 1.02782 38.7883 1.0036 38.9199C0.979383 39.0515 0.982182 39.1867 1.01183 39.3172C1.29318 40.6234 1.65464 41.911 2.09416 43.1728C2.13735 43.299 2.20569 43.4152 2.29507 43.5144C2.38444 43.6135 2.493 43.6935 2.61417 43.7495C2.73532 43.8054 2.86658 43.8362 2.99999 43.84C3.1334 43.8438 3.2662 43.8205 3.39035 43.7715L6.63737 42.4951C6.87294 42.4014 7.06345 42.2208 7.16941 41.9904C7.27537 41.7602 7.28865 41.4979 7.2065 41.2582C6.8675 40.282 6.58629 39.2867 6.36432 38.2776C6.30819 38.0309 6.15947 37.8152 5.94887 37.6749C5.73827 37.5348 5.48187 37.4808 5.23263 37.5242Z" fill="#0E1052" fill-opacity="0.6"/>
<path d="M60.3529 37.0999L63.7742 37.7052C63.9063 37.729 64.0416 37.7257 64.1724 37.6954C64.303 37.6652 64.4262 37.6086 64.5342 37.5292C64.6423 37.4497 64.733 37.3491 64.8008 37.2334C64.8688 37.1177 64.9123 36.9895 64.929 36.8564C65.1081 35.5335 65.2059 34.2008 65.2218 32.8659C65.225 32.7321 65.2009 32.5991 65.151 32.4749C65.1011 32.3507 65.0266 32.238 64.9318 32.1435C64.8371 32.049 64.724 31.9748 64.5997 31.9253C64.4754 31.876 64.3423 31.8523 64.2085 31.8559L60.7312 31.948C60.4785 31.9555 60.2384 32.0597 60.0603 32.2391C59.8822 32.4184 59.7797 32.6592 59.7739 32.9119C59.7562 33.9453 59.6782 34.9768 59.5403 36.0011C59.5078 36.2536 59.5742 36.5091 59.7256 36.7138C59.8771 36.9186 60.1018 37.0569 60.3529 37.0999Z" fill="#0E1052"/>
<path d="M57.0995 46.2586L60.1163 47.9988C60.2319 48.0659 60.36 48.1086 60.4927 48.1247C60.6254 48.1407 60.7599 48.1296 60.8882 48.0921C61.0165 48.0546 61.1358 47.9914 61.2389 47.9063C61.3421 47.8213 61.4269 47.7163 61.4881 47.5975C62.1102 46.416 62.6596 45.1975 63.133 43.9491C63.1813 43.8245 63.2037 43.6914 63.1991 43.5579C63.1944 43.4244 63.1626 43.2931 63.1056 43.1723C63.0487 43.0514 62.9679 42.9434 62.868 42.8546C62.7681 42.7659 62.6512 42.6984 62.5244 42.6562L59.2347 41.5476C58.994 41.4669 58.7315 41.4821 58.5018 41.5899C58.2721 41.6978 58.0927 41.8899 58.001 42.1266C57.6325 43.0922 57.2064 44.0348 56.7245 44.9492C56.6068 45.1738 56.5801 45.4351 56.65 45.6789C56.7198 45.9227 56.8807 46.1303 57.0995 46.2586Z" fill="#0E1052"/>
<path d="M50.9078 53.7493L53.1482 56.4174C53.2339 56.5196 53.3394 56.6034 53.4585 56.6637C53.5775 56.724 53.7075 56.7594 53.8406 56.7681C53.9738 56.7767 54.1074 56.7582 54.2332 56.7137C54.3589 56.6693 54.4744 56.5999 54.5726 56.5095C55.5619 55.6118 56.4948 54.6537 57.3657 53.6407C57.4539 53.5403 57.5209 53.4229 57.5623 53.2957C57.6038 53.1685 57.6191 53.0342 57.607 52.901C57.595 52.7678 57.5561 52.6384 57.4925 52.5207C57.429 52.403 57.3422 52.2994 57.2374 52.2163L54.5167 50.0516C54.3179 49.8945 54.0663 49.8198 53.814 49.8431C53.5617 49.8664 53.328 49.9858 53.1613 50.1767C52.4848 50.9564 51.7631 51.6956 50.9999 52.3906C50.813 52.562 50.6991 52.7986 50.682 53.0516C50.6648 53.3046 50.7457 53.5544 50.9078 53.7493Z" fill="#0E1052"/>
<path d="M42.5292 58.6742L43.7234 61.964C43.769 62.0903 43.84 62.2061 43.9319 62.304C44.0238 62.402 44.1348 62.4802 44.258 62.5338C44.3812 62.5874 44.5141 62.6153 44.6484 62.6157C44.7827 62.6161 44.9158 62.5892 45.0394 62.5364C46.2812 62.0334 47.4899 61.4521 48.6581 60.7961C48.7752 60.7317 48.878 60.6442 48.9603 60.5389C49.0425 60.4336 49.1026 60.3127 49.1367 60.1835C49.1708 60.0543 49.1783 59.9195 49.1588 59.7873C49.1394 59.6551 49.0932 59.5282 49.0232 59.4144L47.2007 56.4536C47.0681 56.2376 46.8575 56.081 46.6125 56.0161C46.3675 55.9511 46.107 55.9829 45.8848 56.1049C44.9821 56.6068 44.0505 57.055 43.095 57.4471C42.8624 57.5414 42.6744 57.7207 42.5693 57.9486C42.464 58.1766 42.4498 58.436 42.5292 58.6742Z" fill="#0E1052"/>
<path d="M32.9751 60.4376V63.9181C32.975 64.0515 33.0019 64.1834 33.0541 64.306C33.1064 64.4286 33.1829 64.5394 33.2792 64.6316C33.3754 64.7238 33.4893 64.7956 33.614 64.8427C33.7387 64.8896 33.8717 64.9109 34.0048 64.9051C34.6628 64.8788 35.3208 64.8327 36.005 64.7669C36.6893 64.7012 37.3407 64.6123 37.9987 64.5038C38.1302 64.4825 38.2561 64.4349 38.3688 64.3637C38.4815 64.2925 38.5785 64.1992 38.6542 64.0894C38.7298 63.9797 38.7824 63.8557 38.8088 63.7251C38.8353 63.5945 38.8349 63.4598 38.8079 63.3293L38.1138 59.9178C38.0628 59.6695 37.918 59.4504 37.7098 59.3058C37.5016 59.1613 37.2457 59.1024 36.9952 59.1414C35.9746 59.3054 34.9454 59.4098 33.9127 59.454C33.6602 59.4666 33.4222 59.5756 33.2477 59.7587C33.0732 59.9417 32.9757 60.1847 32.9751 60.4376Z" fill="#0E1052"/>
<path d="M5.15363 27.8029L1.72896 27.1976C1.59723 27.1738 1.46202 27.177 1.33156 27.2071C1.2011 27.2371 1.07812 27.2934 0.9701 27.3725C0.862082 27.4515 0.771284 27.5518 0.703231 27.6672C0.635179 27.7824 0.591293 27.9103 0.574246 28.0431C0.395248 29.3672 0.297468 30.7009 0.281455 32.037C0.278736 32.1704 0.303136 32.3031 0.353179 32.4269C0.403222 32.5507 0.477867 32.663 0.572594 32.7572C0.667322 32.8513 0.780161 32.9251 0.904283 32.9744C1.0284 33.0237 1.16123 33.0472 1.29471 33.0436L4.77202 32.9548C5.0258 32.9481 5.26723 32.8438 5.44613 32.6637C5.62503 32.4836 5.72764 32.2414 5.73263 31.9876C5.74825 30.9554 5.82404 29.9251 5.95963 28.9018C5.9923 28.6501 5.92679 28.3956 5.7767 28.1909C5.62661 27.9864 5.40347 27.8474 5.15363 27.8029Z" fill="#0E1052" fill-opacity="0.6"/>
<path d="M52.8097 32.4547C52.8091 29.6947 52.2371 26.9647 51.1297 24.4367C50.0222 21.9088 48.4032 19.6374 46.3748 17.7658L44.072 17.5487C47.1949 19.9188 49.495 23.2093 50.6483 26.9562C51.8015 30.7032 51.7496 34.7175 50.5 38.4335C49.2503 42.1493 46.8659 45.3793 43.6829 47.6679C40.4998 49.9567 36.6789 51.1885 32.7585 51.19C32.1827 51.19 31.584 51.1605 30.9721 51.1045C30.8856 51.0965 30.7986 51.1056 30.7156 51.1313C30.6327 51.157 30.5558 51.1988 30.489 51.2542C30.4223 51.3097 30.3671 51.3777 30.3266 51.4544C30.2862 51.5312 30.2612 51.6152 30.2533 51.7016C30.2453 51.788 30.2544 51.8752 30.28 51.958C30.3057 52.0409 30.3475 52.1179 30.4029 52.1846C30.4584 52.2515 30.5264 52.3066 30.6032 52.347C30.68 52.3875 30.764 52.4124 30.8504 52.4205C31.5083 52.4829 32.1433 52.5126 32.7585 52.5126C38.0762 52.5082 43.1747 50.3934 46.9343 46.6325C50.6939 42.8717 52.8071 37.7724 52.8097 32.4547Z" fill="#0E1052"/>
<path d="M83.5949 35.742C81.8887 35.742 80.3449 35.3682 78.9637 34.6207C77.5987 33.857 76.5262 32.817 75.7462 31.5007C74.9662 30.1682 74.5762 28.6732 74.5762 27.0157C74.5762 25.3582 74.9662 23.8714 75.7462 22.5551C76.5262 21.2226 77.6068 20.1826 78.988 19.4351C80.3693 18.6714 81.913 18.2895 83.6193 18.2895C84.9518 18.2895 86.1705 18.517 87.2755 18.972C88.3805 19.4107 89.323 20.0689 90.103 20.9464L88.5187 22.482C87.2349 21.1332 85.6343 20.4589 83.7168 20.4589C82.4493 20.4589 81.3037 20.7432 80.2799 21.312C79.2562 21.8807 78.4518 22.6689 77.8668 23.6764C77.298 24.6676 77.0137 25.7807 77.0137 27.0157C77.0137 28.2507 77.298 29.372 77.8668 30.3795C78.4518 31.3707 79.2562 32.1507 80.2799 32.7195C81.3037 33.2882 82.4493 33.5726 83.7168 33.5726C85.618 33.5726 87.2187 32.8901 88.5187 31.5251L90.103 33.0607C89.323 33.9382 88.3724 34.6045 87.2512 35.0595C86.1462 35.5145 84.9274 35.742 83.5949 35.742Z" fill="#0E1052"/>
<path d="M104.046 31.2813H94.9793L93.1024 35.547H90.5918L98.3187 18.4845H100.732L108.483 35.547H105.923L104.046 31.2813ZM103.193 29.3313L99.513 20.9707L95.8324 29.3313H103.193Z" fill="#0E1052"/>
<path d="M116.001 35.742C114.717 35.742 113.474 35.547 112.271 35.157C111.085 34.7507 110.151 34.2307 109.468 33.597L110.37 31.6957C111.02 32.2807 111.849 32.7601 112.856 33.1339C113.88 33.4914 114.928 33.6701 116.001 33.6701C117.415 33.6701 118.471 33.4345 119.17 32.9632C119.868 32.4757 120.218 31.8339 120.218 31.0376C120.218 30.4526 120.023 29.9814 119.633 29.6239C119.259 29.2501 118.788 28.9657 118.219 28.7707C117.666 28.5757 116.878 28.3564 115.855 28.1126C114.571 27.8039 113.531 27.4951 112.735 27.1864C111.955 26.8776 111.28 26.4064 110.711 25.7726C110.159 25.1226 109.883 24.2532 109.883 23.1645C109.883 22.2545 110.118 21.4339 110.59 20.7026C111.077 19.9714 111.808 19.3864 112.783 18.9476C113.758 18.5089 114.969 18.2895 116.415 18.2895C117.423 18.2895 118.414 18.4195 119.389 18.6795C120.364 18.9395 121.201 19.3132 121.9 19.8007L121.095 21.7507C120.38 21.2957 119.616 20.9545 118.804 20.727C117.991 20.4832 117.195 20.3614 116.415 20.3614C115.034 20.3614 113.994 20.6132 113.295 21.117C112.613 21.6207 112.271 22.2707 112.271 23.067C112.271 23.652 112.466 24.1314 112.856 24.5051C113.246 24.8626 113.726 25.147 114.295 25.3582C114.88 25.5532 115.668 25.7645 116.659 25.992C117.943 26.3007 118.975 26.6095 119.755 26.9182C120.535 27.227 121.201 27.6982 121.753 28.332C122.322 28.9657 122.606 29.8189 122.606 30.8914C122.606 31.7851 122.363 32.6057 121.875 33.3532C121.388 34.0845 120.648 34.6695 119.657 35.1082C118.666 35.5307 117.447 35.742 116.001 35.742Z" fill="#0E1052"/>
<path d="M126.168 18.4845H128.605V35.547H126.168V18.4845Z" fill="#0E1052"/>
<path d="M148.387 18.4845V35.547H146.388L136.15 22.8232V35.547H133.713V18.4845H135.712L145.949 31.2082V18.4845H148.387Z" fill="#0E1052"/>
<path d="M161.197 35.742C159.474 35.742 157.922 35.3682 156.541 34.6207C155.16 33.857 154.071 32.8089 153.275 31.4764C152.495 30.1439 152.105 28.657 152.105 27.0157C152.105 25.3745 152.495 23.8876 153.275 22.5551C154.071 21.2226 155.16 20.1826 156.541 19.4351C157.922 18.6714 159.474 18.2895 161.197 18.2895C162.903 18.2895 164.447 18.6714 165.828 19.4351C167.209 20.1826 168.29 21.2226 169.07 22.5551C169.85 23.8714 170.24 25.3582 170.24 27.0157C170.24 28.6732 169.85 30.1682 169.07 31.5007C168.29 32.817 167.209 33.857 165.828 34.6207C164.447 35.3682 162.903 35.742 161.197 35.742ZM161.197 33.5726C162.448 33.5726 163.569 33.2882 164.561 32.7195C165.568 32.1507 166.356 31.3707 166.925 30.3795C167.51 29.372 167.802 28.2507 167.802 27.0157C167.802 25.7807 167.51 24.6676 166.925 23.6764C166.356 22.6689 165.568 21.8807 164.561 21.312C163.569 20.7432 162.448 20.4589 161.197 20.4589C159.946 20.4589 158.808 20.7432 157.784 21.312C156.777 21.8807 155.981 22.6689 155.396 23.6764C154.827 24.6676 154.542 25.7807 154.542 27.0157C154.542 28.2507 154.827 29.372 155.396 30.3795C155.981 31.3707 156.777 32.1507 157.784 32.7195C158.808 33.2882 159.946 33.5726 161.197 33.5726Z" fill="#0E1052"/>
<path d="M185.446 26.6988C186.437 26.9751 187.217 27.4788 187.786 28.2101C188.355 28.9251 188.639 29.8351 188.639 30.9401C188.639 32.4188 188.078 33.5563 186.957 34.3526C185.852 35.1488 184.235 35.547 182.107 35.547H173.965V18.4845H181.619C183.569 18.4845 185.072 18.8745 186.128 19.6545C187.201 20.4345 187.737 21.5151 187.737 22.8963C187.737 23.7901 187.526 24.562 187.103 25.212C186.697 25.862 186.145 26.3576 185.446 26.6988ZM176.403 20.4588V25.9188H181.4C182.651 25.9188 183.61 25.6913 184.276 25.2363C184.958 24.7651 185.3 24.0826 185.3 23.1888C185.3 22.2951 184.958 21.6207 184.276 21.1657C183.61 20.6945 182.651 20.4588 181.4 20.4588H176.403ZM182.009 33.5726C183.39 33.5726 184.43 33.3451 185.129 32.8901C185.828 32.4351 186.177 31.7201 186.177 30.7451C186.177 28.8438 184.788 27.8932 182.009 27.8932H176.403V33.5726H182.009Z" fill="#0E1052"/>
<path d="M192.413 18.4845H194.851V33.4263H204.089V35.547H192.413V18.4845Z" fill="#0E1052"/>
<path d="M219.268 33.4263V35.547H206.886V18.4845H218.927V20.6051H209.323V25.8457H217.879V27.9176H209.323V33.4263H219.268Z" fill="#0E1052"/>
<path d="M79.0024 45.7906C79.4595 45.7906 79.8738 45.8972 80.2455 46.1105C80.6234 46.3177 80.9189 46.6132 81.1322 46.9972C81.3455 47.375 81.4521 47.8168 81.4521 48.3225C81.4521 48.8283 81.3455 49.2732 81.1322 49.6571C80.9189 50.0349 80.6234 50.3304 80.2455 50.5437C79.8738 50.7509 79.4595 50.8545 79.0024 50.8545C78.3748 50.8545 77.8812 50.6564 77.5216 50.2604V52.5547H76.0957V45.8637H77.4577V46.4304C77.8111 46.0039 78.326 45.7906 79.0024 45.7906ZM78.7556 49.6845C79.1212 49.6845 79.4198 49.5626 79.6514 49.3189C79.8891 49.069 80.0079 48.7369 80.0079 48.3225C80.0079 47.9082 79.8891 47.5791 79.6514 47.3354C79.4198 47.0855 79.1212 46.9606 78.7556 46.9606C78.39 46.9606 78.0884 47.0855 77.8507 47.3354C77.6191 47.5791 77.5034 47.9082 77.5034 48.3225C77.5034 48.7369 77.6191 49.069 77.8507 49.3189C78.0884 49.5626 78.39 49.6845 78.7556 49.6845Z" fill="#0E1052"/>
<path d="M82.9551 43.999H84.381V50.7814H82.9551V43.999Z" fill="#0E1052"/>
<path d="M88.2361 45.7906C88.9978 45.7906 89.5828 45.9734 89.9911 46.339C90.3993 46.6986 90.6035 47.2439 90.6035 47.9752V50.7814H89.2689V50.1689C89.0008 50.626 88.5011 50.8545 87.7699 50.8545C87.3921 50.8545 87.063 50.7905 86.7827 50.6625C86.5085 50.5346 86.2982 50.3579 86.152 50.1324C86.0057 49.9069 85.9326 49.651 85.9326 49.3646C85.9326 48.9075 86.1032 48.548 86.4445 48.286C86.7918 48.0239 87.325 47.8929 88.0441 47.8929H89.1775C89.1775 47.5822 89.0831 47.3445 88.8942 47.18C88.7053 47.0093 88.4219 46.924 88.0441 46.924C87.7821 46.924 87.5231 46.9667 87.2671 47.052C87.0173 47.1312 86.804 47.2409 86.6273 47.3811L86.1154 46.3847C86.3836 46.1958 86.7035 46.0496 87.0752 45.946C87.453 45.8424 87.84 45.7906 88.2361 45.7906ZM88.1264 49.8947C88.3701 49.8947 88.5864 49.8399 88.7753 49.7302C88.9643 49.6144 89.0983 49.4468 89.1775 49.2275V48.7247H88.1995C87.6145 48.7247 87.322 48.9167 87.322 49.3006C87.322 49.4834 87.3921 49.6296 87.5322 49.7393C87.6785 49.8429 87.8765 49.8947 88.1264 49.8947Z" fill="#0E1052"/>
<path d="M97.2346 45.8637L95.0135 51.083C94.788 51.6497 94.5077 52.0489 94.1725 52.2804C93.8435 52.512 93.4443 52.6278 92.9751 52.6278C92.7192 52.6278 92.4663 52.5882 92.2164 52.5089C91.9666 52.4297 91.7624 52.32 91.604 52.1799L92.125 51.1653C92.2347 51.2628 92.3596 51.3389 92.4998 51.3938C92.646 51.4486 92.7892 51.4761 92.9294 51.4761C93.1244 51.4761 93.2828 51.4273 93.4047 51.3298C93.5266 51.2384 93.6363 51.083 93.7338 50.8636L93.752 50.8179L91.6223 45.8637H93.0939L94.4742 49.2L95.8635 45.8637H97.2346Z" fill="#0E1052"/>
<path d="M100.188 45.7906C100.949 45.7906 101.534 45.9734 101.942 46.339C102.351 46.6986 102.555 47.2439 102.555 47.9752V50.7814H101.221V50.1689C100.952 50.626 100.453 50.8545 99.7215 50.8545C99.3437 50.8545 99.0147 50.7905 98.7344 50.6625C98.4601 50.5346 98.2499 50.3579 98.1036 50.1324C97.9574 49.9069 97.8843 49.651 97.8843 49.3646C97.8843 48.9075 98.0549 48.548 98.3962 48.286C98.7435 48.0239 99.2767 47.8929 99.9958 47.8929H101.129C101.129 47.5822 101.035 47.3445 100.846 47.18C100.657 47.0093 100.374 46.924 99.9958 46.924C99.7337 46.924 99.4747 46.9667 99.2188 47.052C98.969 47.1312 98.7557 47.2409 98.579 47.3811L98.0671 46.3847C98.3352 46.1958 98.6551 46.0496 99.0269 45.946C99.4047 45.8424 99.7916 45.7906 100.188 45.7906ZM100.078 49.8947C100.322 49.8947 100.538 49.8399 100.727 49.7302C100.916 49.6144 101.05 49.4468 101.129 49.2275V48.7247H100.151C99.5661 48.7247 99.2736 48.9167 99.2736 49.3006C99.2736 49.4834 99.3437 49.6296 99.4839 49.7393C99.6301 49.8429 99.8282 49.8947 100.078 49.8947Z" fill="#0E1052"/>
<path d="M107.301 45.7906C107.758 45.7906 108.172 45.8972 108.544 46.1105C108.922 46.3177 109.217 46.6132 109.431 46.9971C109.644 47.375 109.75 47.8168 109.75 48.3225C109.75 48.8283 109.644 49.2732 109.431 49.6571C109.217 50.0349 108.922 50.3304 108.544 50.5437C108.172 50.7509 107.758 50.8545 107.301 50.8545C106.624 50.8545 106.109 50.6412 105.756 50.2146V50.7814H104.394V43.999H105.82V46.3847C106.18 45.9886 106.673 45.7906 107.301 45.7906ZM107.054 49.6845C107.42 49.6845 107.718 49.5626 107.95 49.3189C108.187 49.069 108.306 48.7369 108.306 48.3225C108.306 47.9082 108.187 47.5791 107.95 47.3354C107.718 47.0855 107.42 46.9606 107.054 46.9606C106.688 46.9606 106.387 47.0855 106.149 47.3354C105.917 47.5791 105.802 47.9082 105.802 48.3225C105.802 48.7369 105.917 49.069 106.149 49.3189C106.387 49.5626 106.688 49.6845 107.054 49.6845Z" fill="#0E1052"/>
<path d="M111.253 43.999H112.679V50.7814H111.253V43.999Z" fill="#0E1052"/>
<path d="M119.368 48.3408C119.368 48.3591 119.359 48.4871 119.341 48.7247H115.621C115.688 49.0294 115.846 49.2701 116.096 49.4468C116.346 49.6236 116.657 49.7119 117.028 49.7119C117.284 49.7119 117.51 49.6754 117.705 49.6022C117.906 49.523 118.092 49.4011 118.262 49.2366L119.021 50.0593C118.558 50.5894 117.881 50.8545 116.992 50.8545C116.437 50.8545 115.947 50.7479 115.52 50.5346C115.094 50.3152 114.764 50.0136 114.533 49.6296C114.301 49.2457 114.186 48.81 114.186 48.3225C114.186 47.8411 114.298 47.4085 114.524 47.0246C114.755 46.6346 115.069 46.3329 115.465 46.1196C115.867 45.9003 116.315 45.7906 116.809 45.7906C117.29 45.7906 117.726 45.8942 118.116 46.1014C118.506 46.3086 118.811 46.6072 119.03 46.9972C119.256 47.3811 119.368 47.8289 119.368 48.3408ZM116.818 46.8692C116.495 46.8692 116.224 46.9606 116.005 47.1434C115.785 47.3262 115.651 47.5761 115.602 47.8929H118.025C117.976 47.5822 117.842 47.3354 117.622 47.1525C117.403 46.9636 117.135 46.8692 116.818 46.8692Z" fill="#0E1052"/>
<path d="M131.9 45.8637L130.118 50.7814H128.746L127.64 47.7284L126.498 50.7814H125.127L123.354 45.8637H124.697L125.858 49.1909L127.065 45.8637H128.271L129.442 49.1909L130.639 45.8637H131.9Z" fill="#0E1052"/>
<path d="M133.112 45.8637H134.538V50.7813H133.112V45.8637ZM133.825 45.1781C133.563 45.1781 133.349 45.102 133.185 44.9496C133.02 44.7973 132.938 44.6084 132.938 44.3829C132.938 44.1574 133.02 43.9685 133.185 43.8162C133.349 43.6639 133.563 43.5877 133.825 43.5877C134.087 43.5877 134.3 43.6608 134.464 43.8071C134.629 43.9533 134.711 44.1361 134.711 44.3555C134.711 44.5931 134.629 44.7912 134.464 44.9496C134.3 45.102 134.087 45.1781 133.825 45.1781Z" fill="#0E1052"/>
<path d="M139.399 45.7906C140.008 45.7906 140.499 45.9734 140.87 46.339C141.248 46.7046 141.437 47.247 141.437 47.9661V50.7814H140.011V48.1854C140.011 47.7954 139.926 47.506 139.755 47.3171C139.585 47.1221 139.338 47.0246 139.015 47.0246C138.655 47.0246 138.369 47.1373 138.156 47.3628C137.942 47.5822 137.836 47.9112 137.836 48.35V50.7814H136.41V45.8637H137.772V46.4396C137.961 46.2324 138.195 46.0739 138.475 45.9643C138.756 45.8485 139.064 45.7906 139.399 45.7906Z" fill="#0E1052"/>
<path d="M146.267 45.7906C146.877 45.7906 147.367 45.9734 147.739 46.339C148.117 46.7046 148.306 47.247 148.306 47.9661V50.7814H146.88V48.1854C146.88 47.7954 146.794 47.506 146.624 47.3171C146.453 47.1221 146.206 47.0246 145.883 47.0246C145.524 47.0246 145.237 47.1373 145.024 47.3628C144.811 47.5822 144.704 47.9112 144.704 48.35V50.7814H143.278V45.8637H144.64V46.4396C144.829 46.2324 145.064 46.0739 145.344 45.9643C145.624 45.8485 145.932 45.7906 146.267 45.7906Z" fill="#0E1052"/>
<path d="M152.131 45.7906C152.892 45.7906 153.477 45.9734 153.886 46.339C154.294 46.6986 154.498 47.2439 154.498 47.9752V50.7814H153.163V50.1689C152.895 50.626 152.396 50.8545 151.664 50.8545C151.287 50.8545 150.958 50.7905 150.677 50.6625C150.403 50.5346 150.193 50.3579 150.047 50.1324C149.9 49.9069 149.827 49.651 149.827 49.3646C149.827 48.9075 149.998 48.548 150.339 48.286C150.686 48.0239 151.22 47.8929 151.939 47.8929H153.072C153.072 47.5822 152.978 47.3445 152.789 47.18C152.6 47.0093 152.316 46.924 151.939 46.924C151.677 46.924 151.418 46.9667 151.162 47.052C150.912 47.1312 150.699 47.2409 150.522 47.3811L150.01 46.3847C150.278 46.1958 150.598 46.0496 150.97 45.946C151.348 45.8424 151.734 45.7906 152.131 45.7906ZM152.021 49.8947C152.265 49.8947 152.481 49.8399 152.67 49.7302C152.859 49.6144 152.993 49.4468 153.072 49.2275V48.7247H152.094C151.509 48.7247 151.217 48.9167 151.217 49.3006C151.217 49.4834 151.287 49.6296 151.427 49.7393C151.573 49.8429 151.771 49.8947 152.021 49.8947Z" fill="#0E1052"/>
<path d="M159.243 45.7906C159.7 45.7906 160.114 45.8972 160.486 46.1105C160.864 46.3177 161.159 46.6132 161.372 46.9971C161.586 47.375 161.692 47.8168 161.692 48.3225C161.692 48.8283 161.586 49.2732 161.372 49.6571C161.159 50.0349 160.864 50.3304 160.486 50.5437C160.114 50.7509 159.7 50.8545 159.243 50.8545C158.566 50.8545 158.051 50.6412 157.698 50.2146V50.7814H156.336V43.999H157.762V46.3847C158.121 45.9886 158.615 45.7906 159.243 45.7906ZM158.996 49.6845C159.361 49.6845 159.66 49.5626 159.892 49.3189C160.129 49.069 160.248 48.7369 160.248 48.3225C160.248 47.9082 160.129 47.5791 159.892 47.3354C159.66 47.0855 159.361 46.9606 158.996 46.9606C158.63 46.9606 158.329 47.0855 158.091 47.3354C157.859 47.5791 157.744 47.9082 157.744 48.3225C157.744 48.7369 157.859 49.069 158.091 49.3189C158.329 49.5626 158.63 49.6845 158.996 49.6845Z" fill="#0E1052"/>
<path d="M163.196 43.999H164.622V50.7814H163.196V43.999Z" fill="#0E1052"/>
<path d="M171.311 48.3408C171.311 48.3591 171.302 48.4871 171.283 48.7247H167.563C167.63 49.0294 167.788 49.2701 168.038 49.4468C168.288 49.6236 168.599 49.7119 168.971 49.7119C169.227 49.7119 169.452 49.6754 169.647 49.6022C169.848 49.523 170.034 49.4011 170.205 49.2366L170.963 50.0593C170.5 50.5894 169.824 50.8545 168.934 50.8545C168.38 50.8545 167.889 50.7479 167.462 50.5346C167.036 50.3152 166.707 50.0136 166.475 49.6296C166.244 49.2457 166.128 48.81 166.128 48.3225C166.128 47.8411 166.241 47.4085 166.466 47.0246C166.698 46.6346 167.012 46.3329 167.408 46.1196C167.81 45.9003 168.258 45.7906 168.751 45.7906C169.233 45.7906 169.668 45.8942 170.058 46.1014C170.448 46.3086 170.753 46.6072 170.972 46.9972C171.198 47.3811 171.311 47.8289 171.311 48.3408ZM168.76 46.8692C168.437 46.8692 168.166 46.9606 167.947 47.1434C167.728 47.3262 167.593 47.5761 167.545 47.8929H169.967C169.918 47.5822 169.784 47.3354 169.565 47.1525C169.345 46.9636 169.077 46.8692 168.76 46.8692Z" fill="#0E1052"/>
<path d="M178.853 45.7906C179.31 45.7906 179.724 45.8972 180.096 46.1105C180.473 46.3177 180.769 46.6132 180.982 46.9972C181.196 47.375 181.302 47.8168 181.302 48.3225C181.302 48.8283 181.196 49.2732 180.982 49.6571C180.769 50.0349 180.473 50.3304 180.096 50.5437C179.724 50.7509 179.31 50.8545 178.853 50.8545C178.225 50.8545 177.731 50.6564 177.372 50.2604V52.5547H175.946V45.8637H177.308V46.4304C177.661 46.0039 178.176 45.7906 178.853 45.7906ZM178.606 49.6845C178.971 49.6845 179.27 49.5626 179.501 49.3189C179.739 49.069 179.858 48.7369 179.858 48.3225C179.858 47.9082 179.739 47.5791 179.501 47.3354C179.27 47.0855 178.971 46.9606 178.606 46.9606C178.24 46.9606 177.938 47.0855 177.701 47.3354C177.469 47.5791 177.353 47.9082 177.353 48.3225C177.353 48.7369 177.469 49.069 177.701 49.3189C177.938 49.5626 178.24 49.6845 178.606 49.6845Z" fill="#0E1052"/>
<path d="M184.708 45.7906C185.469 45.7906 186.054 45.9734 186.463 46.339C186.871 46.6986 187.075 47.2439 187.075 47.9752V50.7814H185.741V50.1689C185.473 50.626 184.973 50.8545 184.242 50.8545C183.864 50.8545 183.535 50.7905 183.254 50.6625C182.98 50.5346 182.77 50.3579 182.624 50.1324C182.477 49.9069 182.404 49.651 182.404 49.3646C182.404 48.9075 182.575 48.548 182.916 48.286C183.264 48.0239 183.797 47.8929 184.516 47.8929H185.649C185.649 47.5822 185.555 47.3445 185.366 47.18C185.177 47.0093 184.894 46.924 184.516 46.924C184.254 46.924 183.995 46.9667 183.739 47.052C183.489 47.1312 183.276 47.2409 183.099 47.3811L182.587 46.3847C182.855 46.1958 183.175 46.0496 183.547 45.946C183.925 45.8424 184.312 45.7906 184.708 45.7906ZM184.598 49.8947C184.842 49.8947 185.058 49.8399 185.247 49.7302C185.436 49.6144 185.57 49.4468 185.649 49.2275V48.7247H184.671C184.086 48.7247 183.794 48.9167 183.794 49.3006C183.794 49.4834 183.864 49.6296 184.004 49.7393C184.15 49.8429 184.348 49.8947 184.598 49.8947Z" fill="#0E1052"/>
<path d="M193.706 45.8637L191.485 51.083C191.259 51.6497 190.979 52.0489 190.644 52.2804C190.315 52.512 189.916 52.6278 189.446 52.6278C189.19 52.6278 188.937 52.5882 188.688 52.5089C188.438 52.4297 188.234 52.32 188.075 52.1799L188.596 51.1653C188.706 51.2628 188.831 51.3389 188.971 51.3938C189.117 51.4486 189.26 51.4761 189.401 51.4761C189.596 51.4761 189.754 51.4273 189.876 51.3298C189.998 51.2384 190.107 51.083 190.205 50.8636L190.223 50.8179L188.093 45.8637H189.565L190.945 49.2L192.335 45.8637H193.706Z" fill="#0E1052"/>
<path d="M196.599 45.7906C197.361 45.7906 197.946 45.9734 198.354 46.339C198.763 46.6986 198.967 47.2439 198.967 47.9752V50.7814H197.632V50.1689C197.364 50.626 196.864 50.8545 196.133 50.8545C195.755 50.8545 195.426 50.7905 195.146 50.6625C194.872 50.5346 194.662 50.3579 194.515 50.1324C194.369 49.9069 194.296 49.651 194.296 49.3646C194.296 48.9075 194.467 48.548 194.808 48.286C195.155 48.0239 195.688 47.8929 196.407 47.8929H197.541C197.541 47.5822 197.446 47.3445 197.257 47.18C197.069 47.0093 196.785 46.924 196.407 46.924C196.145 46.924 195.886 46.9667 195.63 47.052C195.381 47.1312 195.167 47.2409 194.991 47.3811L194.479 46.3847C194.747 46.1958 195.067 46.0496 195.438 45.946C195.816 45.8424 196.203 45.7906 196.599 45.7906ZM196.49 49.8947C196.733 49.8947 196.95 49.8399 197.139 49.7302C197.328 49.6144 197.462 49.4468 197.541 49.2275V48.7247H196.563C195.978 48.7247 195.685 48.9167 195.685 49.3006C195.685 49.4834 195.755 49.6296 195.896 49.7393C196.042 49.8429 196.24 49.8947 196.49 49.8947Z" fill="#0E1052"/>
<path d="M203.713 45.7906C204.17 45.7906 204.584 45.8972 204.956 46.1105C205.334 46.3177 205.629 46.6132 205.843 46.9971C206.056 47.375 206.163 47.8168 206.163 48.3225C206.163 48.8283 206.056 49.2732 205.843 49.6571C205.629 50.0349 205.334 50.3304 204.956 50.5437C204.584 50.7509 204.17 50.8545 203.713 50.8545C203.036 50.8545 202.522 50.6412 202.168 50.2146V50.7814H200.806V43.999H202.232V46.3847C202.592 45.9886 203.085 45.7906 203.713 45.7906ZM203.466 49.6845C203.832 49.6845 204.13 49.5626 204.362 49.3189C204.6 49.069 204.718 48.7369 204.718 48.3225C204.718 47.9082 204.6 47.5791 204.362 47.3354C204.13 47.0855 203.832 46.9606 203.466 46.9606C203.1 46.9606 202.799 47.0855 202.561 47.3354C202.33 47.5791 202.214 47.9082 202.214 48.3225C202.214 48.7369 202.33 49.069 202.561 49.3189C202.799 49.5626 203.1 49.6845 203.466 49.6845Z" fill="#0E1052"/>
<path d="M207.665 43.999H209.092V50.7814H207.665V43.999Z" fill="#0E1052"/>
<path d="M215.78 48.3408C215.78 48.3591 215.771 48.4871 215.753 48.7247H212.033C212.1 49.0294 212.258 49.2701 212.508 49.4468C212.758 49.6236 213.069 49.7119 213.44 49.7119C213.696 49.7119 213.922 49.6754 214.117 49.6022C214.318 49.523 214.504 49.4011 214.674 49.2366L215.433 50.0593C214.97 50.5894 214.294 50.8545 213.404 50.8545C212.849 50.8545 212.359 50.7479 211.932 50.5346C211.506 50.3152 211.177 50.0136 210.945 49.6296C210.713 49.2457 210.598 48.81 210.598 48.3225C210.598 47.8411 210.71 47.4085 210.936 47.0246C211.167 46.6346 211.481 46.3329 211.877 46.1196C212.28 45.9003 212.727 45.7906 213.221 45.7906C213.702 45.7906 214.138 45.8942 214.528 46.1014C214.918 46.3086 215.223 46.6072 215.442 46.9972C215.668 47.3811 215.78 47.8289 215.78 48.3408ZM213.23 46.8692C212.907 46.8692 212.636 46.9606 212.417 47.1434C212.197 47.3262 212.063 47.5761 212.014 47.8929H214.437C214.388 47.5822 214.254 47.3354 214.035 47.1525C213.815 46.9636 213.547 46.8692 213.23 46.8692Z" fill="#0E1052"/>
</g>
<defs>
<clipPath id="clip0_35_9112">
<rect width="223.438" height="65" fill="white" transform="translate(0.28125)"/>
</clipPath>
</defs>
</svg>
