<svg width="224" height="65" viewBox="0 0 224 65" fill="none" xmlns="http://www.w3.org/2000/svg">
<g clip-path="url(#clip0_63_18796)">
<path d="M33.0761 7.49502C28.3334 7.38062 23.6562 8.61988 19.5924 11.0677C15.5285 13.5154 12.2462 17.0704 10.1298 21.3163C8.01341 25.5623 7.15056 30.3232 7.64231 35.0418C8.13405 39.7604 9.96004 44.2411 12.9064 47.9594C13.3776 48.5517 14.0376 48.9645 14.7763 49.1291C15.5151 49.2938 16.2878 49.2002 16.966 48.8642L21.6145 46.5875V43.6563L15.7915 46.5086C15.6542 46.5787 15.4967 46.5983 15.3464 46.564C15.1961 46.5297 15.0625 46.4437 14.9691 46.3211C11.427 41.8566 9.72703 36.2061 10.2178 30.5283C10.7084 24.8504 13.3526 19.5754 17.6082 15.7847C21.8637 11.994 27.4081 9.975 33.1048 10.1415C38.8013 10.308 44.2185 12.6474 48.2453 16.6801C48.6971 17.1297 49.1247 17.5947 49.5283 18.075H52.8477C52.028 16.9148 51.1112 15.8264 50.1073 14.8214C45.5903 10.2702 39.4865 7.64464 33.0761 7.49502Z" fill="#5848D5" fill-opacity="0.6"/>
<path d="M52.8508 18.0947H49.5248C53.0296 22.2247 54.9083 27.491 54.8089 32.9067C54.7096 38.3226 52.6391 43.5164 48.9854 47.5152C43.0933 53.8646 34.0201 56.3384 25.8746 53.8152C25.7343 53.7774 25.6105 53.6944 25.5225 53.5789C25.4344 53.4635 25.387 53.3221 25.3877 53.177V44.7419L45.0376 35.1226C45.5412 34.867 45.9611 34.4727 46.2479 33.9864C46.5349 33.4999 46.6766 32.9416 46.6565 32.3772C46.6365 31.8128 46.4554 31.266 46.1348 30.8012C45.8142 30.3363 45.3672 29.9728 44.8468 29.7536L26.8944 21.2167L26.822 21.187C26.3729 21.0064 25.8863 20.9384 25.4049 20.9894C24.9235 21.0404 24.4619 21.2087 24.0606 21.4794C23.6592 21.7502 23.3305 22.1153 23.103 22.5427C22.8756 22.97 22.7563 23.4466 22.7558 23.9308V43.097L21.6143 43.6563V46.5875L22.7558 46.0316V53.1605C22.7553 53.8674 22.9826 54.5557 23.4039 55.1233C23.8252 55.691 24.4181 56.1078 25.0949 56.3121C27.4391 57.0365 29.8788 57.4047 32.3325 57.4043C35.8207 57.3974 39.2703 56.673 42.4668 55.2763C45.6632 53.8795 48.5383 51.8402 50.9131 49.2851C54.751 45.0899 57.0363 39.7069 57.3888 34.032C57.7414 28.3572 56.1398 22.7326 52.8508 18.0947ZM25.3877 23.9308C25.3877 23.8435 25.4223 23.7598 25.484 23.6981C25.5457 23.6364 25.6294 23.6018 25.7167 23.6018C25.7513 23.6013 25.7858 23.6069 25.8186 23.6182L43.7546 32.1453L43.8269 32.1782C43.8865 32.1998 43.938 32.2391 43.9745 32.2909C44.0109 32.3427 44.0306 32.4044 44.0309 32.4677C44.038 32.5281 44.0264 32.5893 43.9975 32.6429C43.9687 32.6964 43.9241 32.7398 43.8696 32.7671L25.3877 41.8107V23.9308Z" fill="#5848D5"/>
<path d="M32.4771 12.4033C37.5313 12.4017 42.3977 14.3182 46.0935 17.7657L43.7907 17.5518C40.4501 15.0293 36.3608 13.6982 32.1755 13.771C27.9901 13.8436 23.9496 15.3158 20.6985 17.9528C17.4475 20.5898 15.1732 24.2395 14.2384 28.3199C13.3037 32.4002 13.7624 36.6761 15.5412 40.4652C15.581 40.5436 15.6045 40.629 15.6107 40.7165C15.6168 40.8041 15.6054 40.8919 15.5771 40.975C15.5488 41.0581 15.5042 41.1346 15.4458 41.2001C15.3875 41.2657 15.3166 41.3189 15.2374 41.3567C15.1582 41.3944 15.0721 41.4159 14.9845 41.4199C14.8968 41.424 14.8093 41.4104 14.7269 41.38C14.6446 41.3498 14.5691 41.3032 14.505 41.2433C14.4409 41.1834 14.3894 41.1112 14.3537 41.0311C12.9136 37.9748 12.2685 34.6046 12.4781 31.2326C12.6877 27.8606 13.7453 24.5961 15.5527 21.7418C17.3601 18.8874 19.859 16.5355 22.8175 14.9042C25.7761 13.2729 29.0986 12.415 32.4771 12.4099V12.4033Z" fill="#5848D5" fill-opacity="0.6"/>
<path d="M49.8667 22.4833C49.6989 22.1905 49.5211 21.901 49.3369 21.6181C49.5245 21.901 49.6989 22.1905 49.8667 22.4833Z" fill="#5848D5" fill-opacity="0.6"/>
<path d="M22.7001 6.21858L21.5124 2.96169C21.4671 2.83503 21.3964 2.71897 21.3046 2.62063C21.2129 2.5223 21.102 2.44376 20.9787 2.38984C20.8555 2.33593 20.7226 2.30777 20.588 2.30711C20.4535 2.30644 20.3203 2.33328 20.1966 2.38597C18.9556 2.89092 17.747 3.47213 16.5778 4.12628C16.4607 4.19067 16.3579 4.27816 16.2756 4.38347C16.1933 4.48879 16.1332 4.60969 16.0991 4.73889C16.065 4.86809 16.0575 5.00287 16.077 5.13508C16.0965 5.26728 16.1426 5.39414 16.2126 5.50799L18.0253 8.4688C18.1579 8.68476 18.3685 8.84143 18.6135 8.90635C18.8585 8.97127 19.119 8.93946 19.3412 8.81751C20.2438 8.31446 21.1753 7.86517 22.1309 7.47199C22.3703 7.37835 22.5638 7.19498 22.6701 6.96089C22.7763 6.7268 22.7871 6.46047 22.7001 6.21858Z" fill="#5848D5" fill-opacity="0.6"/>
<path d="M29.7732 5.55738C30.2898 5.50475 30.803 5.46856 31.3162 5.44553C31.5705 5.4345 31.8107 5.32567 31.9866 5.14176C32.1625 4.95787 32.2606 4.7131 32.2604 4.45859V0.987864C32.2605 0.854579 32.2336 0.72265 32.1814 0.600033C32.1291 0.477417 32.0526 0.366655 31.9563 0.274428C31.8601 0.1822 31.7462 0.110419 31.6215 0.0634131C31.4967 0.0164074 31.3638 -0.00484862 31.2306 0.000927126C30.5727 0.0272455 29.9147 0.0733025 29.2305 0.139098C28.5461 0.204894 27.8948 0.297008 27.2566 0.402282C27.125 0.423504 26.999 0.471159 26.8864 0.542371C26.7738 0.613584 26.6767 0.706879 26.601 0.81663C26.5254 0.926379 26.4727 1.05031 26.4463 1.18095C26.4199 1.31159 26.4202 1.44622 26.4473 1.57674L27.1348 4.97838C27.1859 5.22733 27.331 5.44699 27.54 5.59161C27.749 5.73624 28.0056 5.79468 28.2567 5.75477C28.7468 5.67581 29.2568 5.61002 29.7732 5.55738Z" fill="#5848D5" fill-opacity="0.6"/>
<path d="M14.3207 11.1499L12.0869 8.48522C12.0011 8.38299 11.8956 8.29919 11.7765 8.23891C11.6575 8.17863 11.5275 8.14312 11.3944 8.1345C11.2612 8.12589 11.1277 8.14438 11.0018 8.18882C10.8761 8.23326 10.7606 8.30276 10.6624 8.3931C9.67363 9.29243 8.73984 10.2504 7.86607 11.2618C7.778 11.3625 7.71131 11.4801 7.67008 11.6074C7.62886 11.7346 7.61395 11.869 7.62625 12.0023C7.63856 12.1355 7.67783 12.2648 7.74169 12.3824C7.80553 12.5 7.89262 12.6034 7.99766 12.6863L10.7184 14.851C10.9171 15.0081 11.1687 15.0828 11.421 15.0595C11.6734 15.0362 11.907 14.9168 12.0737 14.726C12.7498 13.9438 13.4704 13.2013 14.2318 12.502C14.4164 12.3306 14.5284 12.0951 14.5449 11.8436C14.5615 11.5923 14.4812 11.344 14.3207 11.1499Z" fill="#5848D5" fill-opacity="0.6"/>
<path d="M41.8466 6.07048L43.0342 2.807C43.0805 2.6815 43.1007 2.54791 43.0937 2.41435C43.0867 2.28079 43.0527 2.15004 42.9936 2.03005C42.9344 1.91006 42.8517 1.80332 42.75 1.71634C42.6484 1.62934 42.5302 1.5639 42.4026 1.52399C41.1312 1.11564 39.8359 0.786037 38.5239 0.537054C38.3927 0.511128 38.2576 0.512152 38.1267 0.540063C37.9959 0.567975 37.8721 0.622194 37.7629 0.699423C37.6536 0.776652 37.5613 0.875281 37.4913 0.989318C37.4214 1.10336 37.3753 1.23042 37.356 1.36279L36.8462 4.80062C36.8063 5.05207 36.8652 5.30918 37.0105 5.51824C37.1557 5.72729 37.3762 5.87211 37.6258 5.92243C38.6396 6.1183 39.6413 6.37202 40.6261 6.68238C40.8692 6.75734 41.1318 6.73553 41.3592 6.62153C41.5866 6.50752 41.7612 6.31011 41.8466 6.07048Z" fill="#5848D5" fill-opacity="0.6"/>
<path d="M50.3011 10.8736L52.5349 8.22534C52.6204 8.1231 52.6844 8.00458 52.7229 7.87693C52.7615 7.74929 52.7737 7.61516 52.7589 7.48265C52.7442 7.35014 52.7027 7.222 52.6371 7.10594C52.5715 6.9899 52.4829 6.88835 52.377 6.80745C51.3225 5.98768 50.2184 5.23397 49.0707 4.55065C48.9563 4.48105 48.8289 4.43546 48.6962 4.41668C48.5636 4.39789 48.4286 4.4063 48.2993 4.44138C48.17 4.47647 48.0493 4.5375 47.9444 4.62076C47.8395 4.70403 47.7525 4.80777 47.689 4.92569L46.0441 7.97861C45.9231 8.20194 45.8927 8.46336 45.9595 8.70848C46.0264 8.95359 46.1851 9.1635 46.4028 9.29452C47.2873 9.82662 48.1407 10.4087 48.9589 11.0381C49.1615 11.1867 49.4132 11.2524 49.6626 11.2219C49.912 11.1913 50.1404 11.0668 50.3011 10.8736Z" fill="#5848D5" fill-opacity="0.6"/>
<path d="M56.6081 18.2658L59.6183 16.5288C59.7333 16.4613 59.8334 16.3713 59.9128 16.264C59.992 16.1569 60.0487 16.0347 60.0795 15.9049C60.1102 15.7752 60.1144 15.6405 60.0916 15.5092C60.069 15.3778 60.0198 15.2523 59.9473 15.1404C59.2358 14.0114 58.4558 12.927 57.6115 11.8935C57.5277 11.7894 57.4236 11.7033 57.3054 11.6407C57.1874 11.578 57.0578 11.54 56.9247 11.529C56.7914 11.5179 56.6574 11.534 56.5306 11.5763C56.4038 11.6185 56.2869 11.6862 56.187 11.775L53.5815 14.0779C53.3912 14.2461 53.273 14.4811 53.2516 14.7342C53.2301 14.9872 53.307 15.2387 53.4664 15.4366C54.1173 16.2378 54.7214 17.0759 55.2757 17.9467C55.4133 18.162 55.629 18.3156 55.8776 18.3751C56.126 18.4346 56.3879 18.3954 56.6081 18.2658Z" fill="#5848D5" fill-opacity="0.6"/>
<path d="M8.1292 18.6408L5.11575 16.9039C5.0001 16.8368 4.87205 16.794 4.73936 16.7779C4.60667 16.7619 4.4721 16.7731 4.34382 16.8105C4.21555 16.8481 4.09622 16.9113 3.9931 16.9963C3.88998 17.0813 3.80519 17.1864 3.7439 17.3051C3.12046 18.4849 2.5711 19.7022 2.09902 20.9502C2.05023 21.075 2.02735 21.2085 2.03179 21.3424C2.03624 21.4762 2.06789 21.6078 2.12483 21.7291C2.18178 21.8504 2.26282 21.9588 2.36301 22.0477C2.4632 22.1367 2.58045 22.2043 2.70762 22.2465L5.99741 23.3518C6.23889 23.4343 6.50297 23.4202 6.73422 23.3123C6.96546 23.2043 7.1459 23.0109 7.23766 22.7728C7.60859 21.8082 8.03478 20.8657 8.5141 19.9501C8.63095 19.7244 8.65613 19.4622 8.58443 19.2183C8.51273 18.9743 8.34965 18.7674 8.1292 18.6408Z" fill="#5848D5" fill-opacity="0.6"/>
<path d="M59.999 27.3785L63.4236 26.7765C63.5555 26.7535 63.6812 26.7039 63.7933 26.6308C63.9054 26.5577 64.0014 26.4625 64.0756 26.3511C64.1497 26.2397 64.2005 26.1145 64.2247 25.9828C64.2489 25.8512 64.2461 25.716 64.2164 25.5855C63.9371 24.2799 63.5756 22.9933 63.1341 21.7332C63.0912 21.6078 63.0234 21.4924 62.9349 21.3937C62.8464 21.2951 62.7388 21.2153 62.6188 21.1591C62.4987 21.103 62.3686 21.0715 62.2362 21.0667C62.1036 21.0619 61.9716 21.0839 61.8478 21.1312L58.6107 22.4076C58.3753 22.5007 58.1845 22.6805 58.078 22.9101C57.9715 23.1397 57.9572 23.4015 58.0382 23.6413C58.3759 24.6175 58.656 25.6128 58.8771 26.6219C58.9325 26.8671 59.0795 27.0821 59.2879 27.2227C59.4964 27.3633 59.7507 27.419 59.999 27.3785Z" fill="#5848D5"/>
<path d="M4.95138 37.5242L1.52342 38.1263C1.39159 38.1492 1.26581 38.1988 1.15373 38.2719C1.04166 38.345 0.94562 38.4402 0.871461 38.5516C0.797303 38.6629 0.746572 38.7883 0.722353 38.9199C0.698133 39.0515 0.700932 39.1867 0.730579 39.3172C1.01193 40.6234 1.37339 41.911 1.81291 43.1728C1.8561 43.299 1.92444 43.4152 2.01382 43.5144C2.10319 43.6135 2.21175 43.6935 2.33292 43.7495C2.45407 43.8054 2.58533 43.8362 2.71874 43.84C2.85215 43.8438 2.98495 43.8205 3.1091 43.7715L6.35612 42.4951C6.59169 42.4014 6.7822 42.2208 6.88816 41.9904C6.99412 41.7602 7.0074 41.4979 6.92525 41.2582C6.58625 40.282 6.30504 39.2867 6.08307 38.2776C6.02694 38.0309 5.87822 37.8152 5.66762 37.6749C5.45702 37.5348 5.20062 37.4808 4.95138 37.5242Z" fill="#5848D5" fill-opacity="0.6"/>
<path d="M60.0716 37.0999L63.493 37.7052C63.625 37.729 63.7604 37.7257 63.8911 37.6954C64.0217 37.6652 64.1449 37.6086 64.253 37.5292C64.361 37.4497 64.4517 37.3491 64.5196 37.2334C64.5875 37.1177 64.6311 36.9895 64.6477 36.8564C64.8268 35.5335 64.9246 34.2008 64.9406 32.8659C64.9437 32.7321 64.9196 32.5991 64.8698 32.4749C64.8199 32.3507 64.7453 32.238 64.6506 32.1435C64.5558 32.049 64.4428 31.9748 64.3185 31.9253C64.1942 31.876 64.061 31.8523 63.9273 31.8559L60.45 31.948C60.1973 31.9555 59.9572 32.0597 59.779 32.2391C59.6009 32.4184 59.4984 32.6592 59.4926 32.9119C59.475 33.9453 59.397 34.9768 59.259 36.0011C59.2265 36.2536 59.293 36.5091 59.4444 36.7138C59.5958 36.9186 59.8206 37.0569 60.0716 37.0999Z" fill="#5848D5"/>
<path d="M56.8178 46.2586L59.8346 47.9988C59.9502 48.0659 60.0782 48.1086 60.211 48.1247C60.3436 48.1407 60.4782 48.1296 60.6065 48.0921C60.7347 48.0546 60.8541 47.9914 60.9572 47.9063C61.0603 47.8213 61.1451 47.7163 61.2064 47.5975C61.8285 46.416 62.3778 45.1975 62.8513 43.9491C62.8995 43.8245 62.922 43.6914 62.9173 43.5579C62.9126 43.4244 62.8809 43.2931 62.8239 43.1723C62.767 43.0514 62.6862 42.9434 62.5862 42.8546C62.4864 42.7659 62.3695 42.6984 62.2426 42.6562L58.9529 41.5476C58.7122 41.4669 58.4498 41.4821 58.22 41.5899C57.9903 41.6978 57.811 41.8899 57.7192 42.1266C57.3508 43.0922 56.9246 44.0348 56.4428 44.9492C56.3251 45.1738 56.2984 45.4351 56.3683 45.6789C56.438 45.9227 56.599 46.1303 56.8178 46.2586Z" fill="#5848D5"/>
<path d="M50.6266 53.7493L52.8669 56.4174C52.9527 56.5196 53.0582 56.6034 53.1772 56.6637C53.2962 56.724 53.4262 56.7594 53.5594 56.7681C53.6925 56.7767 53.8261 56.7582 53.9519 56.7137C54.0777 56.6693 54.1931 56.5999 54.2914 56.5095C55.2807 55.6118 56.2135 54.6537 57.0844 53.6407C57.1727 53.5403 57.2396 53.4229 57.2811 53.2957C57.3226 53.1685 57.3378 53.0342 57.3257 52.901C57.3138 52.7678 57.2749 52.6384 57.2113 52.5207C57.1477 52.403 57.061 52.2994 56.9562 52.2163L54.2355 50.0516C54.0366 49.8945 53.7851 49.8198 53.5328 49.8431C53.2804 49.8664 53.0467 49.9858 52.88 50.1767C52.2035 50.9564 51.4818 51.6956 50.7187 52.3906C50.5317 52.562 50.4179 52.7986 50.4007 53.0516C50.3835 53.3046 50.4645 53.5544 50.6266 53.7493Z" fill="#5848D5"/>
<path d="M42.248 58.6742L43.4422 61.964C43.4878 62.0903 43.5588 62.2061 43.6507 62.304C43.7426 62.402 43.8536 62.4802 43.9768 62.5338C44.1 62.5874 44.2328 62.6153 44.3672 62.6157C44.5015 62.6161 44.6345 62.5892 44.7581 62.5364C45.9999 62.0334 47.2086 61.4521 48.3769 60.7961C48.494 60.7317 48.5968 60.6442 48.679 60.5389C48.7613 60.4336 48.8213 60.3127 48.8554 60.1835C48.8896 60.0543 48.8971 59.9195 48.8776 59.7873C48.8582 59.6551 48.812 59.5282 48.742 59.4144L46.9195 56.4536C46.7868 56.2376 46.5763 56.081 46.3312 56.0161C46.0862 55.9511 45.8257 55.9829 45.6035 56.1049C44.7008 56.6068 43.7693 57.055 42.8138 57.4471C42.5811 57.5414 42.3931 57.7207 42.288 57.9486C42.1828 58.1766 42.1686 58.436 42.248 58.6742Z" fill="#5848D5"/>
<path d="M32.6943 60.4376V63.9181C32.6942 64.0515 32.7211 64.1834 32.7733 64.306C32.8257 64.4286 32.9021 64.5394 32.9984 64.6316C33.0946 64.7238 33.2085 64.7956 33.3333 64.8427C33.458 64.8896 33.5909 64.9109 33.7241 64.9051C34.382 64.8788 35.04 64.8327 35.7242 64.7669C36.4086 64.7012 37.0599 64.6123 37.7179 64.5038C37.8494 64.4825 37.9754 64.4349 38.088 64.3637C38.2008 64.2925 38.2977 64.1992 38.3734 64.0894C38.4491 63.9797 38.5017 63.8557 38.5281 63.7251C38.5545 63.5945 38.5542 63.4598 38.5272 63.3293L37.833 59.9178C37.782 59.6695 37.6373 59.4504 37.4291 59.3058C37.2209 59.1613 36.9649 59.1024 36.7145 59.1414C35.6939 59.3054 34.6646 59.4098 33.632 59.454C33.3795 59.4666 33.1414 59.5756 32.9669 59.7587C32.7924 59.9417 32.6949 60.1847 32.6943 60.4376Z" fill="#5848D5"/>
<path d="M4.87238 27.8029L1.44771 27.1976C1.31598 27.1738 1.18077 27.177 1.05031 27.2071C0.919846 27.2371 0.796867 27.2934 0.68885 27.3725C0.580832 27.4515 0.490034 27.5518 0.421981 27.6672C0.353929 27.7824 0.310043 27.9103 0.292996 28.0431C0.113998 29.3672 0.0162184 30.7009 0.000204618 32.037C-0.00251422 32.1704 0.0218863 32.3031 0.0719292 32.4269C0.121972 32.5507 0.196617 32.663 0.291344 32.7572C0.386072 32.8513 0.498911 32.9251 0.623033 32.9744C0.747155 33.0237 0.879977 33.0472 1.01346 33.0436L4.49077 32.9548C4.74455 32.9481 4.98598 32.8438 5.16488 32.6637C5.34378 32.4836 5.44639 32.2414 5.45138 31.9876C5.467 30.9554 5.54279 29.9251 5.67838 28.9018C5.71105 28.6501 5.64554 28.3956 5.49545 28.1909C5.34536 27.9864 5.12222 27.8474 4.87238 27.8029Z" fill="#5848D5" fill-opacity="0.6"/>
<path d="M52.528 32.4547C52.5274 29.6947 51.9554 26.9647 50.8479 24.4367C49.7404 21.9088 48.1215 19.6374 46.0931 17.7658L43.7903 17.5487C46.9131 19.9188 49.2133 23.2093 50.3665 26.9562C51.5198 30.7032 51.4679 34.7175 50.2183 38.4335C48.9685 42.1493 46.5842 45.3793 43.4012 47.6679C40.2181 49.9567 36.3971 51.1885 32.4767 51.19C31.901 51.19 31.3022 51.1605 30.6903 51.1045C30.6039 51.0965 30.5169 51.1056 30.4339 51.1313C30.351 51.157 30.274 51.1988 30.2073 51.2542C30.1406 51.3097 30.0853 51.3777 30.0449 51.4544C30.0045 51.5312 29.9795 51.6152 29.9716 51.7016C29.9635 51.788 29.9727 51.8752 29.9983 51.958C30.024 52.0409 30.0657 52.1179 30.1212 52.1846C30.1766 52.2515 30.2447 52.3066 30.3215 52.347C30.3982 52.3875 30.4822 52.4124 30.5687 52.4205C31.2266 52.4829 31.8615 52.5126 32.4767 52.5126C37.7944 52.5082 42.893 50.3934 46.6526 46.6325C50.4121 42.8717 52.5254 37.7724 52.528 32.4547Z" fill="#5848D5"/>
<path d="M83.3137 35.742C81.6074 35.742 80.0637 35.3682 78.6824 34.6207C77.3174 33.857 76.2449 32.817 75.4649 31.5007C74.6849 30.1682 74.2949 28.6732 74.2949 27.0157C74.2949 25.3582 74.6849 23.8714 75.4649 22.5551C76.2449 21.2226 77.3255 20.1826 78.7068 19.4351C80.088 18.6714 81.6318 18.2895 83.338 18.2895C84.6705 18.2895 85.8893 18.517 86.9943 18.972C88.0993 19.4107 89.0418 20.0689 89.8218 20.9464L88.2374 22.482C86.9537 21.1332 85.353 20.4589 83.4355 20.4589C82.168 20.4589 81.0224 20.7432 79.9987 21.312C78.9749 21.8807 78.1705 22.6689 77.5855 23.6764C77.0168 24.6676 76.7324 25.7807 76.7324 27.0157C76.7324 28.2507 77.0168 29.372 77.5855 30.3795C78.1705 31.3707 78.9749 32.1507 79.9987 32.7195C81.0224 33.2882 82.168 33.5726 83.4355 33.5726C85.3368 33.5726 86.9374 32.8901 88.2374 31.5251L89.8218 33.0607C89.0418 33.9382 88.0912 34.6045 86.9699 35.0595C85.8649 35.5145 84.6462 35.742 83.3137 35.742Z" fill="#5848D5"/>
<path d="M103.765 31.2813H94.698L92.8212 35.547H90.3105L98.0374 18.4845H100.451L108.201 35.547H105.642L103.765 31.2813ZM102.912 29.3313L99.2318 20.9707L95.5512 29.3313H102.912Z" fill="#5848D5"/>
<path d="M115.719 35.742C114.435 35.742 113.192 35.547 111.99 35.157C110.803 34.7507 109.869 34.2307 109.187 33.597L110.088 31.6957C110.738 32.2807 111.567 32.7601 112.575 33.1339C113.598 33.4914 114.647 33.6701 115.719 33.6701C117.133 33.6701 118.189 33.4345 118.888 32.9632C119.587 32.4757 119.936 31.8339 119.936 31.0376C119.936 30.4526 119.741 29.9814 119.351 29.6239C118.977 29.2501 118.506 28.9657 117.937 28.7707C117.385 28.5757 116.597 28.3564 115.573 28.1126C114.289 27.8039 113.249 27.4951 112.453 27.1864C111.673 26.8776 110.998 26.4064 110.43 25.7726C109.877 25.1226 109.601 24.2532 109.601 23.1645C109.601 22.2545 109.837 21.4339 110.308 20.7026C110.795 19.9714 111.527 19.3864 112.502 18.9476C113.477 18.5089 114.687 18.2895 116.133 18.2895C117.141 18.2895 118.132 18.4195 119.107 18.6795C120.082 18.9395 120.919 19.3132 121.618 19.8007L120.813 21.7507C120.098 21.2957 119.335 20.9545 118.522 20.727C117.71 20.4832 116.913 20.3614 116.133 20.3614C114.752 20.3614 113.712 20.6132 113.013 21.117C112.331 21.6207 111.99 22.2707 111.99 23.067C111.99 23.652 112.185 24.1314 112.575 24.5051C112.965 24.8626 113.444 25.147 114.013 25.3582C114.598 25.5532 115.386 25.7645 116.377 25.992C117.661 26.3007 118.693 26.6095 119.473 26.9182C120.253 27.227 120.919 27.6982 121.472 28.332C122.04 28.9657 122.325 29.8189 122.325 30.8914C122.325 31.7851 122.081 32.6057 121.593 33.3532C121.106 34.0845 120.367 34.6695 119.375 35.1082C118.384 35.5307 117.165 35.742 115.719 35.742Z" fill="#5848D5"/>
<path d="M125.887 18.4845H128.324V35.547H125.887V18.4845Z" fill="#5848D5"/>
<path d="M148.105 18.4845V35.547H146.107L135.869 22.8232V35.547H133.432V18.4845H135.43L145.668 31.2082V18.4845H148.105Z" fill="#5848D5"/>
<path d="M160.916 35.742C159.194 35.742 157.642 35.3682 156.26 34.6207C154.879 33.857 153.79 32.8089 152.994 31.4764C152.214 30.1439 151.824 28.657 151.824 27.0157C151.824 25.3745 152.214 23.8876 152.994 22.5551C153.79 21.2226 154.879 20.1826 156.26 19.4351C157.642 18.6714 159.194 18.2895 160.916 18.2895C162.622 18.2895 164.166 18.6714 165.547 19.4351C166.929 20.1826 168.009 21.2226 168.789 22.5551C169.569 23.8714 169.959 25.3582 169.959 27.0157C169.959 28.6732 169.569 30.1682 168.789 31.5007C168.009 32.817 166.929 33.857 165.547 34.6207C164.166 35.3682 162.622 35.742 160.916 35.742ZM160.916 33.5726C162.167 33.5726 163.289 33.2882 164.28 32.7195C165.287 32.1507 166.075 31.3707 166.644 30.3795C167.229 29.372 167.522 28.2507 167.522 27.0157C167.522 25.7807 167.229 24.6676 166.644 23.6764C166.075 22.6689 165.287 21.8807 164.28 21.312C163.289 20.7432 162.167 20.4589 160.916 20.4589C159.665 20.4589 158.527 20.7432 157.504 21.312C156.496 21.8807 155.7 22.6689 155.115 23.6764C154.546 24.6676 154.262 25.7807 154.262 27.0157C154.262 28.2507 154.546 29.372 155.115 30.3795C155.7 31.3707 156.496 32.1507 157.504 32.7195C158.527 33.2882 159.665 33.5726 160.916 33.5726Z" fill="#5848D5"/>
<path d="M185.164 26.6988C186.155 26.9751 186.935 27.4788 187.504 28.2101C188.073 28.9251 188.357 29.8351 188.357 30.9401C188.357 32.4188 187.797 33.5563 186.675 34.3526C185.57 35.1488 183.954 35.547 181.825 35.547H173.684V18.4845H181.337C183.287 18.4845 184.79 18.8745 185.847 19.6545C186.919 20.4345 187.455 21.5151 187.455 22.8963C187.455 23.7901 187.244 24.562 186.822 25.212C186.415 25.862 185.863 26.3576 185.164 26.6988ZM176.121 20.4588V25.9188H181.118C182.369 25.9188 183.328 25.6913 183.994 25.2363C184.677 24.7651 185.018 24.0826 185.018 23.1888C185.018 22.2951 184.677 21.6207 183.994 21.1657C183.328 20.6945 182.369 20.4588 181.118 20.4588H176.121ZM181.727 33.5726C183.109 33.5726 184.149 33.3451 184.847 32.8901C185.546 32.4351 185.895 31.7201 185.895 30.7451C185.895 28.8438 184.506 27.8932 181.727 27.8932H176.121V33.5726H181.727Z" fill="#5848D5"/>
<path d="M192.132 18.4845H194.569V33.4263H203.807V35.547H192.132V18.4845Z" fill="#5848D5"/>
<path d="M218.987 33.4263V35.547H206.604V18.4845H218.646V20.6051H209.042V25.8457H217.598V27.9176H209.042V33.4263H218.987Z" fill="#5848D5"/>
<path d="M78.7212 45.7906C79.1782 45.7906 79.5926 45.8972 79.9643 46.1105C80.3421 46.3177 80.6377 46.6132 80.8509 46.9972C81.0642 47.375 81.1709 47.8168 81.1709 48.3225C81.1709 48.8283 81.0642 49.2732 80.8509 49.6571C80.6377 50.0349 80.3421 50.3304 79.9643 50.5437C79.5926 50.7509 79.1782 50.8545 78.7212 50.8545C78.0935 50.8545 77.5999 50.6564 77.2404 50.2604V52.5547H75.8145V45.8637H77.1764V46.4304C77.5298 46.0039 78.0448 45.7906 78.7212 45.7906ZM78.4744 49.6845C78.84 49.6845 79.1386 49.5626 79.3702 49.3189C79.6078 49.069 79.7266 48.7369 79.7266 48.3225C79.7266 47.9082 79.6078 47.5791 79.3702 47.3354C79.1386 47.0855 78.84 46.9606 78.4744 46.9606C78.1087 46.9606 77.8071 47.0855 77.5694 47.3354C77.3379 47.5791 77.2221 47.9082 77.2221 48.3225C77.2221 48.7369 77.3379 49.069 77.5694 49.3189C77.8071 49.5626 78.1087 49.6845 78.4744 49.6845Z" fill="#5848D5"/>
<path d="M82.6738 43.999H84.0998V50.7814H82.6738V43.999Z" fill="#5848D5"/>
<path d="M87.9548 45.7906C88.7165 45.7906 89.3015 45.9734 89.7098 46.339C90.1181 46.6986 90.3222 47.2439 90.3222 47.9752V50.7814H88.9877V50.1689C88.7196 50.626 88.2199 50.8545 87.4886 50.8545C87.1108 50.8545 86.7818 50.7905 86.5014 50.6625C86.2272 50.5346 86.017 50.3579 85.8707 50.1324C85.7245 49.9069 85.6514 49.651 85.6514 49.3646C85.6514 48.9075 85.822 48.548 86.1632 48.286C86.5106 48.0239 87.0438 47.8929 87.7629 47.8929H88.8963C88.8963 47.5822 88.8018 47.3445 88.6129 47.18C88.424 47.0093 88.1407 46.924 87.7629 46.924C87.5008 46.924 87.2418 46.9667 86.9859 47.052C86.7361 47.1312 86.5228 47.2409 86.3461 47.3811L85.8342 46.3847C86.1023 46.1958 86.4222 46.0496 86.7939 45.946C87.1718 45.8424 87.5587 45.7906 87.9548 45.7906ZM87.8451 49.8947C88.0889 49.8947 88.3052 49.8399 88.4941 49.7302C88.683 49.6144 88.8171 49.4468 88.8963 49.2275V48.7247H87.9182C87.3332 48.7247 87.0407 48.9167 87.0407 49.3006C87.0407 49.4834 87.1108 49.6296 87.251 49.7393C87.3972 49.8429 87.5953 49.8947 87.8451 49.8947Z" fill="#5848D5"/>
<path d="M96.9529 45.8637L94.7317 51.083C94.5062 51.6497 94.2259 52.0489 93.8908 52.2804C93.5617 52.512 93.1626 52.6278 92.6934 52.6278C92.4374 52.6278 92.1845 52.5882 91.9347 52.5089C91.6848 52.4297 91.4807 52.32 91.3223 52.1799L91.8433 51.1653C91.953 51.2628 92.0779 51.3389 92.218 51.3938C92.3643 51.4486 92.5075 51.4761 92.6477 51.4761C92.8427 51.4761 93.0011 51.4273 93.123 51.3298C93.2448 51.2384 93.3545 51.083 93.452 50.8636L93.4703 50.8179L91.3405 45.8637H92.8122L94.1924 49.2L95.5818 45.8637H96.9529Z" fill="#5848D5"/>
<path d="M99.906 45.7906C100.668 45.7906 101.253 45.9734 101.661 46.339C102.069 46.6986 102.273 47.2439 102.273 47.9752V50.7814H100.939V50.1689C100.671 50.626 100.171 50.8545 99.4398 50.8545C99.062 50.8545 98.7329 50.7905 98.4526 50.6625C98.1784 50.5346 97.9682 50.3579 97.8219 50.1324C97.6757 49.9069 97.6025 49.651 97.6025 49.3646C97.6025 48.9075 97.7732 48.548 98.1144 48.286C98.4618 48.0239 98.995 47.8929 99.714 47.8929H100.847C100.847 47.5822 100.753 47.3445 100.564 47.18C100.375 47.0093 100.092 46.924 99.714 46.924C99.452 46.924 99.193 46.9667 98.9371 47.052C98.6872 47.1312 98.4739 47.2409 98.2972 47.3811L97.7854 46.3847C98.0535 46.1958 98.3734 46.0496 98.7451 45.946C99.1229 45.8424 99.5099 45.7906 99.906 45.7906ZM99.7963 49.8947C100.04 49.8947 100.256 49.8399 100.445 49.7302C100.634 49.6144 100.768 49.4468 100.847 49.2275V48.7247H99.8694C99.2844 48.7247 98.9919 48.9167 98.9919 49.3006C98.9919 49.4834 99.062 49.6296 99.2021 49.7393C99.3484 49.8429 99.5464 49.8947 99.7963 49.8947Z" fill="#5848D5"/>
<path d="M107.019 45.7906C107.476 45.7906 107.89 45.8972 108.262 46.1105C108.64 46.3177 108.936 46.6132 109.149 46.9971C109.362 47.375 109.469 47.8168 109.469 48.3225C109.469 48.8283 109.362 49.2732 109.149 49.6571C108.936 50.0349 108.64 50.3304 108.262 50.5437C107.89 50.7509 107.476 50.8545 107.019 50.8545C106.343 50.8545 105.828 50.6412 105.474 50.2146V50.7814H104.112V43.999H105.538V46.3847C105.898 45.9886 106.391 45.7906 107.019 45.7906ZM106.772 49.6845C107.138 49.6845 107.436 49.5626 107.668 49.3189C107.906 49.069 108.024 48.7369 108.024 48.3225C108.024 47.9082 107.906 47.5791 107.668 47.3354C107.436 47.0855 107.138 46.9606 106.772 46.9606C106.407 46.9606 106.105 47.0855 105.867 47.3354C105.636 47.5791 105.52 47.9082 105.52 48.3225C105.52 48.7369 105.636 49.069 105.867 49.3189C106.105 49.5626 106.407 49.6845 106.772 49.6845Z" fill="#5848D5"/>
<path d="M110.973 43.999H112.399V50.7814H110.973V43.999Z" fill="#5848D5"/>
<path d="M119.087 48.3408C119.087 48.3591 119.078 48.4871 119.06 48.7247H115.339C115.406 49.0294 115.565 49.2701 115.815 49.4468C116.065 49.6236 116.375 49.7119 116.747 49.7119C117.003 49.7119 117.228 49.6754 117.423 49.6022C117.625 49.523 117.81 49.4011 117.981 49.2366L118.74 50.0593C118.277 50.5894 117.6 50.8545 116.71 50.8545C116.156 50.8545 115.665 50.7479 115.239 50.5346C114.812 50.3152 114.483 50.0136 114.252 49.6296C114.02 49.2457 113.904 48.81 113.904 48.3225C113.904 47.8411 114.017 47.4085 114.243 47.0246C114.474 46.6346 114.788 46.3329 115.184 46.1196C115.586 45.9003 116.034 45.7906 116.528 45.7906C117.009 45.7906 117.445 45.8942 117.835 46.1014C118.225 46.3086 118.529 46.6072 118.749 46.9972C118.974 47.3811 119.087 47.8289 119.087 48.3408ZM116.537 46.8692C116.214 46.8692 115.943 46.9606 115.723 47.1434C115.504 47.3262 115.37 47.5761 115.321 47.8929H117.743C117.695 47.5822 117.561 47.3354 117.341 47.1525C117.122 46.9636 116.854 46.8692 116.537 46.8692Z" fill="#5848D5"/>
<path d="M131.619 45.8637L129.836 50.7814H128.465L127.359 47.7284L126.217 50.7814H124.846L123.072 45.8637H124.416L125.577 49.1909L126.783 45.8637H127.99L129.161 49.1909L130.357 45.8637H131.619Z" fill="#5848D5"/>
<path d="M132.831 45.8637H134.257V50.7813H132.831V45.8637ZM133.544 45.1781C133.282 45.1781 133.069 45.102 132.904 44.9496C132.739 44.7973 132.657 44.6084 132.657 44.3829C132.657 44.1574 132.739 43.9685 132.904 43.8162C133.069 43.6639 133.282 43.5877 133.544 43.5877C133.806 43.5877 134.019 43.6608 134.184 43.8071C134.348 43.9533 134.431 44.1361 134.431 44.3555C134.431 44.5931 134.348 44.7912 134.184 44.9496C134.019 45.102 133.806 45.1781 133.544 45.1781Z" fill="#5848D5"/>
<path d="M139.117 45.7906C139.726 45.7906 140.217 45.9734 140.589 46.339C140.966 46.7046 141.155 47.247 141.155 47.9661V50.7814H139.729V48.1854C139.729 47.7954 139.644 47.506 139.473 47.3171C139.303 47.1221 139.056 47.0246 138.733 47.0246C138.373 47.0246 138.087 47.1373 137.874 47.3628C137.661 47.5822 137.554 47.9112 137.554 48.35V50.7814H136.128V45.8637H137.49V46.4396C137.679 46.2324 137.913 46.0739 138.194 45.9643C138.474 45.8485 138.782 45.7906 139.117 45.7906Z" fill="#5848D5"/>
<path d="M145.986 45.7906C146.595 45.7906 147.086 45.9734 147.458 46.339C147.836 46.7046 148.024 47.247 148.024 47.9661V50.7814H146.598V48.1854C146.598 47.7954 146.513 47.506 146.343 47.3171C146.172 47.1221 145.925 47.0246 145.602 47.0246C145.243 47.0246 144.956 47.1373 144.743 47.3628C144.53 47.5822 144.423 47.9112 144.423 48.35V50.7814H142.997V45.8637H144.359V46.4396C144.548 46.2324 144.783 46.0739 145.063 45.9643C145.343 45.8485 145.651 45.7906 145.986 45.7906Z" fill="#5848D5"/>
<path d="M151.849 45.7906C152.611 45.7906 153.196 45.9734 153.604 46.339C154.013 46.6986 154.217 47.2439 154.217 47.9752V50.7814H152.882V50.1689C152.614 50.626 152.114 50.8545 151.383 50.8545C151.005 50.8545 150.676 50.7905 150.396 50.6625C150.122 50.5346 149.912 50.3579 149.765 50.1324C149.619 49.9069 149.546 49.651 149.546 49.3646C149.546 48.9075 149.717 48.548 150.058 48.286C150.405 48.0239 150.938 47.8929 151.657 47.8929H152.791C152.791 47.5822 152.696 47.3445 152.507 47.18C152.319 47.0093 152.035 46.924 151.657 46.924C151.395 46.924 151.136 46.9667 150.88 47.052C150.631 47.1312 150.417 47.2409 150.241 47.3811L149.729 46.3847C149.997 46.1958 150.317 46.0496 150.688 45.946C151.066 45.8424 151.453 45.7906 151.849 45.7906ZM151.74 49.8947C151.983 49.8947 152.2 49.8399 152.389 49.7302C152.578 49.6144 152.712 49.4468 152.791 49.2275V48.7247H151.813C151.228 48.7247 150.935 48.9167 150.935 49.3006C150.935 49.4834 151.005 49.6296 151.146 49.7393C151.292 49.8429 151.49 49.8947 151.74 49.8947Z" fill="#5848D5"/>
<path d="M158.961 45.7906C159.418 45.7906 159.833 45.8972 160.205 46.1105C160.582 46.3177 160.878 46.6132 161.091 46.9971C161.304 47.375 161.411 47.8168 161.411 48.3225C161.411 48.8283 161.304 49.2732 161.091 49.6571C160.878 50.0349 160.582 50.3304 160.205 50.5437C159.833 50.7509 159.418 50.8545 158.961 50.8545C158.285 50.8545 157.77 50.6412 157.417 50.2146V50.7814H156.055V43.999H157.481V46.3847C157.84 45.9886 158.334 45.7906 158.961 45.7906ZM158.715 49.6845C159.08 49.6845 159.379 49.5626 159.61 49.3189C159.848 49.069 159.967 48.7369 159.967 48.3225C159.967 47.9082 159.848 47.5791 159.61 47.3354C159.379 47.0855 159.08 46.9606 158.715 46.9606C158.349 46.9606 158.047 47.0855 157.81 47.3354C157.578 47.5791 157.462 47.9082 157.462 48.3225C157.462 48.7369 157.578 49.069 157.81 49.3189C158.047 49.5626 158.349 49.6845 158.715 49.6845Z" fill="#5848D5"/>
<path d="M162.914 43.999H164.34V50.7814H162.914V43.999Z" fill="#5848D5"/>
<path d="M171.029 48.3408C171.029 48.3591 171.02 48.4871 171.002 48.7247H167.282C167.349 49.0294 167.507 49.2701 167.757 49.4468C168.007 49.6236 168.318 49.7119 168.689 49.7119C168.945 49.7119 169.171 49.6754 169.366 49.6022C169.567 49.523 169.753 49.4011 169.923 49.2366L170.682 50.0593C170.219 50.5894 169.543 50.8545 168.653 50.8545C168.098 50.8545 167.608 50.7479 167.181 50.5346C166.755 50.3152 166.426 50.0136 166.194 49.6296C165.962 49.2457 165.847 48.81 165.847 48.3225C165.847 47.8411 165.959 47.4085 166.185 47.0246C166.416 46.6346 166.73 46.3329 167.126 46.1196C167.529 45.9003 167.976 45.7906 168.47 45.7906C168.951 45.7906 169.387 45.8942 169.777 46.1014C170.167 46.3086 170.472 46.6072 170.691 46.9972C170.917 47.3811 171.029 47.8289 171.029 48.3408ZM168.479 46.8692C168.156 46.8692 167.885 46.9606 167.666 47.1434C167.446 47.3262 167.312 47.5761 167.263 47.8929H169.686C169.637 47.5822 169.503 47.3354 169.284 47.1525C169.064 46.9636 168.796 46.8692 168.479 46.8692Z" fill="#5848D5"/>
<path d="M178.571 45.7906C179.028 45.7906 179.442 45.8972 179.814 46.1105C180.192 46.3177 180.487 46.6132 180.701 46.9972C180.914 47.375 181.02 47.8168 181.02 48.3225C181.02 48.8283 180.914 49.2732 180.701 49.6571C180.487 50.0349 180.192 50.3304 179.814 50.5437C179.442 50.7509 179.028 50.8545 178.571 50.8545C177.943 50.8545 177.45 50.6564 177.09 50.2604V52.5547H175.664V45.8637H177.026V46.4304C177.379 46.0039 177.894 45.7906 178.571 45.7906ZM178.324 49.6845C178.69 49.6845 178.988 49.5626 179.22 49.3189C179.457 49.069 179.576 48.7369 179.576 48.3225C179.576 47.9082 179.457 47.5791 179.22 47.3354C178.988 47.0855 178.69 46.9606 178.324 46.9606C177.958 46.9606 177.657 47.0855 177.419 47.3354C177.187 47.5791 177.072 47.9082 177.072 48.3225C177.072 48.7369 177.187 49.069 177.419 49.3189C177.657 49.5626 177.958 49.6845 178.324 49.6845Z" fill="#5848D5"/>
<path d="M184.426 45.7906C185.188 45.7906 185.773 45.9734 186.181 46.339C186.59 46.6986 186.794 47.2439 186.794 47.9752V50.7814H185.459V50.1689C185.191 50.626 184.692 50.8545 183.96 50.8545C183.583 50.8545 183.253 50.7905 182.973 50.6625C182.699 50.5346 182.489 50.3579 182.342 50.1324C182.196 49.9069 182.123 49.651 182.123 49.3646C182.123 48.9075 182.294 48.548 182.635 48.286C182.982 48.0239 183.515 47.8929 184.235 47.8929H185.368C185.368 47.5822 185.274 47.3445 185.085 47.18C184.896 47.0093 184.612 46.924 184.235 46.924C183.972 46.924 183.714 46.9667 183.458 47.052C183.208 47.1312 182.994 47.2409 182.818 47.3811L182.306 46.3847C182.574 46.1958 182.894 46.0496 183.266 45.946C183.643 45.8424 184.03 45.7906 184.426 45.7906ZM184.317 49.8947C184.561 49.8947 184.777 49.8399 184.966 49.7302C185.155 49.6144 185.289 49.4468 185.368 49.2275V48.7247H184.39C183.805 48.7247 183.512 48.9167 183.512 49.3006C183.512 49.4834 183.582 49.6296 183.723 49.7393C183.869 49.8429 184.067 49.8947 184.317 49.8947Z" fill="#5848D5"/>
<path d="M193.425 45.8637L191.203 51.083C190.978 51.6497 190.698 52.0489 190.362 52.2804C190.033 52.512 189.634 52.6278 189.165 52.6278C188.909 52.6278 188.656 52.5882 188.406 52.5089C188.157 52.4297 187.952 52.32 187.794 52.1799L188.315 51.1653C188.425 51.2628 188.55 51.3389 188.69 51.3938C188.836 51.4486 188.979 51.4761 189.119 51.4761C189.314 51.4761 189.473 51.4273 189.595 51.3298C189.717 51.2384 189.826 51.083 189.924 50.8636L189.942 50.8179L187.812 45.8637H189.284L190.664 49.2L192.053 45.8637H193.425Z" fill="#5848D5"/>
<path d="M196.318 45.7906C197.08 45.7906 197.665 45.9734 198.073 46.339C198.481 46.6986 198.686 47.2439 198.686 47.9752V50.7814H197.351V50.1689C197.083 50.626 196.583 50.8545 195.852 50.8545C195.474 50.8545 195.145 50.7905 194.865 50.6625C194.591 50.5346 194.38 50.3579 194.234 50.1324C194.088 49.9069 194.015 49.651 194.015 49.3646C194.015 48.9075 194.185 48.548 194.527 48.286C194.874 48.0239 195.407 47.8929 196.126 47.8929H197.26C197.26 47.5822 197.165 47.3445 196.976 47.18C196.787 47.0093 196.504 46.924 196.126 46.924C195.864 46.924 195.605 46.9667 195.349 47.052C195.099 47.1312 194.886 47.2409 194.709 47.3811L194.197 46.3847C194.466 46.1958 194.786 46.0496 195.157 45.946C195.535 45.8424 195.922 45.7906 196.318 45.7906ZM196.208 49.8947C196.452 49.8947 196.668 49.8399 196.857 49.7302C197.046 49.6144 197.18 49.4468 197.26 49.2275V48.7247H196.282C195.697 48.7247 195.404 48.9167 195.404 49.3006C195.404 49.4834 195.474 49.6296 195.614 49.7393C195.761 49.8429 195.959 49.8947 196.208 49.8947Z" fill="#5848D5"/>
<path d="M203.431 45.7906C203.888 45.7906 204.303 45.8972 204.674 46.1105C205.052 46.3177 205.348 46.6132 205.561 46.9971C205.774 47.375 205.881 47.8168 205.881 48.3225C205.881 48.8283 205.774 49.2732 205.561 49.6571C205.348 50.0349 205.052 50.3304 204.674 50.5437C204.303 50.7509 203.888 50.8545 203.431 50.8545C202.755 50.8545 202.24 50.6412 201.886 50.2146V50.7814H200.524V43.999H201.95V46.3847C202.31 45.9886 202.803 45.7906 203.431 45.7906ZM203.184 49.6845C203.55 49.6845 203.849 49.5626 204.08 49.3189C204.318 49.069 204.437 48.7369 204.437 48.3225C204.437 47.9082 204.318 47.5791 204.08 47.3354C203.849 47.0855 203.55 46.9606 203.184 46.9606C202.819 46.9606 202.517 47.0855 202.279 47.3354C202.048 47.5791 201.932 47.9082 201.932 48.3225C201.932 48.7369 202.048 49.069 202.279 49.3189C202.517 49.5626 202.819 49.6845 203.184 49.6845Z" fill="#5848D5"/>
<path d="M207.383 43.999H208.81V50.7814H207.383V43.999Z" fill="#5848D5"/>
<path d="M215.499 48.3408C215.499 48.3591 215.49 48.4871 215.472 48.7247H211.751C211.819 49.0294 211.977 49.2701 212.227 49.4468C212.477 49.6236 212.787 49.7119 213.159 49.7119C213.415 49.7119 213.641 49.6754 213.836 49.6022C214.037 49.523 214.222 49.4011 214.393 49.2366L215.152 50.0593C214.689 50.5894 214.012 50.8545 213.123 50.8545C212.568 50.8545 212.077 50.7479 211.651 50.5346C211.224 50.3152 210.895 50.0136 210.664 49.6296C210.432 49.2457 210.316 48.81 210.316 48.3225C210.316 47.8411 210.429 47.4085 210.655 47.0246C210.886 46.6346 211.2 46.3329 211.596 46.1196C211.998 45.9003 212.446 45.7906 212.94 45.7906C213.421 45.7906 213.857 45.8942 214.247 46.1014C214.637 46.3086 214.942 46.6072 215.161 46.9972C215.386 47.3811 215.499 47.8289 215.499 48.3408ZM212.949 46.8692C212.626 46.8692 212.355 46.9606 212.135 47.1434C211.916 47.3262 211.782 47.5761 211.733 47.8929H214.155C214.107 47.5822 213.973 47.3354 213.753 47.1525C213.534 46.9636 213.266 46.8692 212.949 46.8692Z" fill="#5848D5"/>
</g>
<defs>
<clipPath id="clip0_63_18796">
<rect width="223.438" height="65" fill="white"/>
</clipPath>
</defs>
</svg>
